<svg xmlns="http://www.w3.org/2000/svg" xmlns:xlink="http://www.w3.org/1999/xlink" version="1.1" width="100" height="100" data-id="root" viewBox="0 0 1024 1024">
<g data-id="g-1746027282628-10"><path style="opacity:1" fill="#f16c28" d="M 948.5,225.5 C 947.334,357.999 947.167,490.666 948,623.5C 948.278,624.416 948.778,625.082 949.5,625.5C 945.415,653.585 929.415,670.252 901.5,675.5C 835.665,674.168 769.665,674.168 703.5,675.5C 703.624,676.107 703.957,676.44 704.5,676.5C 704.5,695.5 704.5,714.5 704.5,733.5C 726.457,734.206 749.124,734.873 772.5,735.5C 778.156,737.672 780.823,741.839 780.5,748C 780.351,754.479 777.351,758.979 771.5,761.5C 666.412,761.66 561.078,761.494 455.5,761C 449.59,759.421 446.09,755.588 445,749.5C 444.536,750.094 444.369,750.761 444.5,751.5C 442.479,742.231 446.146,736.231 455.5,733.5C 476.996,734.663 498.663,734.829 520.5,734C 521.833,714.333 521.833,694.667 520.5,675C 463.5,674.333 406.5,674.333 349.5,675C 349,675.5 348.5,676 348,676.5C 347.667,694.5 347.333,712.5 347,730.5C 346.654,733.576 345.988,736.576 345,739.5C 342.909,742.74 341.076,746.074 339.5,749.5C 338.294,752.298 336.294,754.465 333.5,756C 328.828,758.837 323.828,760.837 318.5,762C 247.167,762.667 175.833,762.667 104.5,762C 85.9142,758.022 75.7475,746.522 74,727.5C 73.3333,585.5 73.3333,443.5 74,301.5C 77.7509,285.582 87.5843,275.915 103.5,272.5C 161.069,273.831 218.069,273.831 274.5,272.5C 274.333,259.496 274.5,246.496 275,233.5C 278.509,207.303 293.009,190.803 318.5,184C 514.167,183.333 709.833,183.333 905.5,184C 928.521,188.855 942.855,202.688 948.5,225.5 Z" data-id="path-1746027282628-11"/></g>
<g data-id="g-1746027282628-12"><path style="opacity:1" fill="#f15205" d="M 895.5,216.5 C 888.412,216.205 881.412,216.538 874.5,217.5C 692.334,216.667 510,216.167 327.5,216C 517,215.167 706.334,215.334 895.5,216.5 Z" data-id="path-1746027282628-13"/></g>
<g data-id="g-1746027282628-14"><path style="opacity:1" fill="#fcfcfc" d="M 895.5,216.5 C 906.579,218.074 913.413,224.407 916,235.5C 916.5,343.166 916.667,450.833 916.5,558.5C 713.833,558.5 511.167,558.5 308.5,558.5C 308.333,449.499 308.5,340.499 309,231.5C 311.568,224.599 316.402,220.099 323.5,218C 507.166,217.5 690.833,217.333 874.5,217.5C 881.412,216.538 888.412,216.205 895.5,216.5 Z" data-id="path-1746027282628-15"/></g>
<g data-id="g-1746027282628-16"><path style="opacity:1" fill="#f36025" d="M 274.5,272.5 C 218.069,273.831 161.069,273.831 103.5,272.5C 160.474,271.44 217.474,271.44 274.5,272.5 Z" data-id="path-1746027282628-17"/></g>
<g data-id="g-1746027282628-18"><path style="opacity:1" fill="#f25d14" d="M 948.5,225.5 C 949.493,358.812 949.827,492.145 949.5,625.5C 948.778,625.082 948.278,624.416 948,623.5C 947.167,490.666 947.334,357.999 948.5,225.5 Z" data-id="path-1746027282628-19"/></g>
<g data-id="g-1746027282628-20"><path style="opacity:1" fill="#fcfbfb" d="M 95.5,346.5 C 95.1981,331.119 95.5314,315.785 96.5,300.5C 98.7209,297.377 101.721,295.211 105.5,294C 161.834,293.594 218.168,293.761 274.5,294.5C 274.5,312.167 274.5,329.833 274.5,347.5C 214.831,347.506 155.164,347.172 95.5,346.5 Z" data-id="path-1746027282628-21"/></g>
<g data-id="g-1746027282628-22"><path style="opacity:1" fill="#ef3c01" d="M 96.5,300.5 C 95.5314,315.785 95.1981,331.119 95.5,346.5C 94.3389,331.672 94.1723,316.672 95,301.5C 95.3333,300.833 95.6667,300.167 96,299.5C 96.3988,299.728 96.5654,300.062 96.5,300.5 Z" data-id="path-1746027282628-23"/></g>
<g data-id="g-1746027282628-24"><path style="opacity:1" fill="#fcf8f6" d="M 95.5,378.5 C 155.167,378.5 214.833,378.5 274.5,378.5C 274.5,387.833 274.5,397.167 274.5,406.5C 214.84,407.425 155.173,407.759 95.5,407.5C 95.5,397.833 95.5,388.167 95.5,378.5 Z" data-id="path-1746027282628-25"/></g>
<g data-id="g-1746027282628-26"><path style="opacity:1" fill="#fcfcfc" d="M 274.5,622.5 C 275.626,631.995 278.459,640.995 283,649.5C 284.049,651.618 285.549,653.284 287.5,654.5C 294.122,663.331 302.789,669.498 313.5,673C 318.374,673.858 323.04,675.024 327.5,676.5C 327.667,694.503 327.5,712.503 327,730.5C 326.074,732.692 324.907,734.692 323.5,736.5C 321.728,738.29 319.728,739.623 317.5,740.5C 246.833,740.5 176.167,740.5 105.5,740.5C 100.879,738.709 97.7122,735.375 96,730.5C 95.5,633.501 95.3333,536.501 95.5,439.5C 155.167,439.5 214.833,439.5 274.5,439.5C 274.5,500.5 274.5,561.5 274.5,622.5 Z" data-id="path-1746027282628-27"/></g>
<g data-id="g-1746027282628-28"><path style="opacity:1" fill="#f0550c" d="M 287.5,654.5 C 285.549,653.284 284.049,651.618 283,649.5C 278.459,640.995 275.626,631.995 274.5,622.5C 275.333,561.668 275.833,500.668 276,439.5C 276.333,502.5 276.667,565.5 277,628.5C 278.592,638.007 282.092,646.673 287.5,654.5 Z" data-id="path-1746027282628-29"/></g>
<g data-id="g-1746027282628-30"><path style="opacity:1" fill="#fbfaf9" d="M 608.5,597.5 C 625.751,597.912 632.917,606.579 630,623.5C 622.435,635.913 612.268,638.746 599.5,632C 592.06,624.581 590.56,616.081 595,606.5C 598.528,601.834 603.028,598.834 608.5,597.5 Z" data-id="path-1746027282628-31"/></g>
<g data-id="g-1746027282628-32"><path style="opacity:1" fill="#f16a27" d="M 192.5,596.5 C 210.429,595.435 220.429,603.768 222.5,621.5C 218.853,640.503 207.519,647.669 188.5,643C 174.701,634.937 170.868,623.437 177,608.5C 180.659,602.435 185.826,598.435 192.5,596.5 Z" data-id="path-1746027282628-33"/></g>
<g data-id="g-1746027282628-34"><path style="opacity:1" fill="#f46225" d="M 676.5,733.5 C 676.5,714.5 676.5,695.5 676.5,676.5C 633.833,676.5 591.167,676.5 548.5,676.5C 548.082,675.778 547.416,675.278 546.5,675C 589.833,674.333 633.167,674.333 676.5,675C 677.831,694.598 677.831,714.098 676.5,733.5 Z" data-id="path-1746027282628-35"/></g>
<g data-id="g-1746027282628-36"><path style="opacity:1" fill="#f15b11" d="M 901.5,675.5 C 835.839,676.42 770.172,676.754 704.5,676.5C 703.957,676.44 703.624,676.107 703.5,675.5C 769.665,674.168 835.665,674.168 901.5,675.5 Z" data-id="path-1746027282628-37"/></g>
<g data-id="g-1746027282628-38"><path style="opacity:1" fill="#f25f1b" d="M 455.5,733.5 C 476.833,733.5 498.167,733.5 519.5,733.5C 519.5,714.5 519.5,695.5 519.5,676.5C 462.833,676.5 406.167,676.5 349.5,676.5C 349.667,693.503 349.5,710.503 349,727.5C 348.619,736.177 345.452,743.51 339.5,749.5C 341.076,746.074 342.909,742.74 345,739.5C 345.988,736.576 346.654,733.576 347,730.5C 347.333,712.5 347.667,694.5 348,676.5C 348.5,676 349,675.5 349.5,675C 406.5,674.333 463.5,674.333 520.5,675C 521.833,694.667 521.833,714.333 520.5,734C 498.663,734.829 476.996,734.663 455.5,733.5 Z" data-id="path-1746027282628-39"/></g>
<g data-id="g-1746027282628-40"><path style="opacity:1" fill="#fcfcfc" d="M 548.5,676.5 C 591.167,676.5 633.833,676.5 676.5,676.5C 676.5,695.5 676.5,714.5 676.5,733.5C 633.167,733.5 589.833,733.5 546.5,733.5C 545.846,714.137 546.513,695.137 548.5,676.5 Z" data-id="path-1746027282628-41"/></g>
<g data-id="g-1746027282628-42"><path style="opacity:1" fill="#ef4f09" d="M 327.5,676.5 C 328.662,694.662 328.829,712.995 328,731.5C 327.482,734.023 326.148,736.023 324,737.5C 323.601,737.272 323.435,736.938 323.5,736.5C 324.907,734.692 326.074,732.692 327,730.5C 327.5,712.503 327.667,694.503 327.5,676.5 Z" data-id="path-1746027282628-43"/></g>
<g data-id="g-1746027282628-44"><path style="opacity:1" fill="#ef3700" d="M 704.5,733.5 C 726.503,733.333 748.503,733.5 770.5,734C 771.416,734.278 772.082,734.778 772.5,735.5C 749.124,734.873 726.457,734.206 704.5,733.5 Z" data-id="path-1746027282628-45"/></g>
<g data-id="g-1746027282628-46"><path style="opacity:1" fill="#f05d11" d="M 105.5,740.5 C 176.167,740.5 246.833,740.5 317.5,740.5C 318.009,741.341 317.343,741.841 315.5,742C 246.5,742.667 177.5,742.667 108.5,742C 106.494,741.917 105.494,741.417 105.5,740.5 Z" data-id="path-1746027282628-47"/></g>
<g data-id="g-1746027282628-48"><path style="opacity:1" fill="#f13e00" d="M 771.5,761.5 C 665.57,762.664 559.57,762.831 453.5,762C 448.512,760.18 445.512,756.68 444.5,751.5C 444.369,750.761 444.536,750.094 445,749.5C 446.09,755.588 449.59,759.421 455.5,761C 561.078,761.494 666.412,761.66 771.5,761.5 Z" data-id="path-1746027282628-49"/></g>
</svg>