<?xml version="1.0" encoding="UTF-8"?>
<!DOCTYPE svg PUBLIC "-//W3C//DTD SVG 1.1//EN" "http://www.w3.org/Graphics/SVG/1.1/DTD/svg11.dtd">
<svg xmlns="http://www.w3.org/2000/svg" version="1.1" width="100px" height="100px" viewBox="0 0 1024 1024" style="shape-rendering:geometricPrecision; text-rendering:geometricPrecision; image-rendering:optimizeQuality; fill-rule:evenodd; clip-rule:evenodd" xmlns:xlink="http://www.w3.org/1999/xlink">
<g><path style="opacity:1" fill="#fe8b1a" d="M 475.5,214.5 C 474.262,214.81 474.262,215.31 475.5,216C 601.167,216.667 726.833,216.667 852.5,216C 850.942,215.79 849.609,215.29 848.5,214.5C 886.433,218.208 909.933,238.542 919,275.5C 920.147,348.151 920.647,420.817 920.5,493.5C 920.333,562.167 920.167,630.833 920,699.5C 914.285,738.215 892.119,760.715 853.5,767C 802.168,767.5 750.834,767.667 699.5,767.5C 699.5,785.5 699.5,803.5 699.5,821.5C 711.171,821.333 722.838,821.5 734.5,822C 746.663,826.821 749.497,834.988 743,846.5C 740.742,848.43 738.242,849.93 735.5,851C 626.833,851.667 518.167,851.667 409.5,851C 401.129,847.091 397.963,840.591 400,831.5C 401.833,827 405,823.833 409.5,822C 422.162,821.5 434.829,821.333 447.5,821.5C 447.5,803.167 447.5,784.833 447.5,766.5C 403.329,766.289 359.162,766.622 315,767.5C 286.189,770.9 261.856,762.233 242,741.5C 232.963,730.42 227.463,717.754 225.5,703.5C 226.167,686.337 226.5,669.003 226.5,651.5C 225.868,576.834 225.368,502.168 225,427.5C 218.246,423.623 211.246,420.289 204,417.5C 197.325,419.82 191.492,422.487 186.5,425.5C 175.496,431.331 163.829,433.165 151.5,431C 142.909,427.416 135.742,421.916 130,414.5C 120.878,402.037 112.544,389.037 105,375.5C 99.4744,362.961 97.8078,349.961 100,336.5C 102.291,330.206 106.125,325.039 111.5,321C 118.419,316.624 125.252,312.124 132,307.5C 135.971,296.906 136.304,286.239 133,275.5C 127.766,270.797 121.933,266.963 115.5,264C 103.489,253.652 98.3224,240.486 100,224.5C 107.721,198.221 121.221,175.387 140.5,156C 146.415,152.063 152.915,149.897 160,149.5C 174.018,152.753 187.518,157.586 200.5,164C 202.833,164.667 205.167,164.667 207.5,164C 213.11,161.279 218.61,158.446 224,155.5C 224.517,143.916 226.517,132.583 230,121.5C 238.104,105.349 251.27,96.5157 269.5,95C 283.833,94.3333 298.167,94.3333 312.5,95C 331.701,97.5355 344.201,108.036 350,126.5C 351.869,135.398 352.869,144.398 353,153.5C 358.808,158.323 365.308,161.989 372.5,164.5C 385.301,159.177 398.301,154.343 411.5,150C 421.114,149.426 429.781,152.092 437.5,158C 449.535,170.698 460.035,184.531 469,199.5C 471.466,204.406 473.632,209.406 475.5,214.5 Z"/></g>
<g><path style="opacity:1" fill="#feaf46" d="M 274.5,125.5 C 284.172,125.334 293.839,125.5 303.5,126C 312.806,126.319 318.973,130.819 322,139.5C 323.135,146.782 323.801,154.115 324,161.5C 326.097,171.607 331.931,178.774 341.5,183C 349.469,186.65 357.469,190.317 365.5,194C 369.072,195.405 372.739,195.738 376.5,195C 387.612,190.944 398.612,186.61 409.5,182C 411.833,181.333 414.167,181.333 416.5,182C 421.612,185.779 426.112,190.279 430,195.5C 437.467,205.435 443.633,216.102 448.5,227.5C 448.215,231.983 446.715,235.983 444,239.5C 435.378,245.787 427.045,252.453 419,259.5C 415.643,263.55 413.976,268.217 414,273.5C 413.051,288.235 413.384,302.902 415,317.5C 416.776,320.941 418.943,324.108 421.5,327C 429,331.918 436.667,336.584 444.5,341C 447.893,347.216 448.393,353.716 446,360.5C 439.635,374.072 432.135,386.905 423.5,399C 418.029,401.976 412.362,402.31 406.5,400C 399.414,396.86 392.414,393.526 385.5,390C 381.239,388.637 376.905,388.304 372.5,389C 360.727,393.719 349.061,398.719 337.5,404C 325.445,411.964 320.945,423.131 324,437.5C 323.448,452.537 315.614,460.037 300.5,460C 290.5,460.667 280.5,460.667 270.5,460C 263.003,458.702 258.17,454.535 256,447.5C 255.667,438.833 255.333,430.167 255,421.5C 254.288,414.453 250.788,409.286 244.5,406C 233.262,399.548 221.596,393.882 209.5,389C 206.167,388.333 202.833,388.333 199.5,389C 189.51,392.994 179.51,396.994 169.5,401C 166.036,401.817 162.702,401.483 159.5,400C 144.84,386.012 134.506,369.346 128.5,350C 128.783,346.641 130.116,343.807 132.5,341.5C 140.928,336.203 149.095,330.537 157,324.5C 161.455,319.367 163.788,313.367 164,306.5C 164.949,291.765 164.616,277.098 163,262.5C 161.262,258.759 158.762,255.592 155.5,253C 148.668,248.416 141.668,244.083 134.5,240C 131.229,237.695 129.563,234.528 129.5,230.5C 130.302,225.927 131.802,221.594 134,217.5C 141.048,205.124 148.881,193.291 157.5,182C 160.5,181.333 163.5,181.333 166.5,182C 178.317,186.996 190.15,191.829 202,196.5C 218.004,191.412 233.171,184.579 247.5,176C 250.531,173.441 252.698,170.274 254,166.5C 254.809,158.178 255.475,149.845 256,141.5C 256.73,135.864 259.564,131.697 264.5,129C 267.85,127.514 271.184,126.347 274.5,125.5 Z"/></g>
<g><path style="opacity:1" fill="#fe8c1a" d="M 275.5,208.5 C 307.342,205.487 334.176,215.487 356,238.5C 372.079,262.299 376.746,288.299 370,316.5C 361.292,346.473 341.792,365.64 311.5,374C 271.184,382.404 239.35,369.904 216,336.5C 200.674,306.085 200.674,275.752 216,245.5C 231.691,226.272 251.524,213.939 275.5,208.5 Z"/></g>
<g><path style="opacity:1" fill="#fe8006" d="M 475.5,214.5 C 599.833,214.5 724.167,214.5 848.5,214.5C 849.609,215.29 850.942,215.79 852.5,216C 726.833,216.667 601.167,216.667 475.5,216C 474.262,215.31 474.262,214.81 475.5,214.5 Z"/></g>
<g><path style="opacity:1" fill="#fefefd" d="M 282.5,237.5 C 319.31,237.484 339.976,255.651 344.5,292C 341.274,325.227 323.107,344.06 290,348.5C 265.16,346.923 247.493,334.923 237,312.5C 227.949,278.438 239.449,254.272 271.5,240C 275.347,239.367 279.014,238.533 282.5,237.5 Z"/></g>
<g><path style="opacity:1" fill="#fe6b00" d="M 476.5,247.5 C 475.728,248.694 474.728,249.694 473.5,250.5C 473.751,248.83 474.418,247.33 475.5,246C 600.833,245.333 726.167,245.333 851.5,246C 726.333,246.167 601.333,246.667 476.5,247.5 Z"/></g>
<g><path style="opacity:1" fill="#fefefe" d="M 476.5,247.5 C 603.167,247.333 729.834,247.5 856.5,248C 873.447,252.614 883.947,263.447 888,280.5C 888.5,394.833 888.667,509.166 888.5,623.5C 677.5,623.5 466.5,623.5 255.5,623.5C 255.5,579.167 255.5,534.833 255.5,490.5C 274.48,491.602 293.48,491.769 312.5,491C 341.735,483.765 355.235,464.932 353,434.5C 353.36,432.392 354.027,430.392 355,428.5C 361.673,423.238 369.173,420.404 377.5,420C 386.167,423.333 394.833,426.667 403.5,430C 420.218,435.088 434.384,431.254 446,418.5C 454.5,406.171 462.5,393.504 470,380.5C 475.022,370.413 477.855,359.746 478.5,348.5C 478.683,340.214 476.183,332.88 471,326.5C 464.148,319.327 456.315,313.493 447.5,309C 445.348,306.531 443.848,303.698 443,300.5C 442.333,293.833 442.333,287.167 443,280.5C 444.031,277.461 445.865,274.961 448.5,273C 454.342,269.246 460.009,265.246 465.5,261C 468.791,257.889 471.457,254.389 473.5,250.5C 474.728,249.694 475.728,248.694 476.5,247.5 Z"/></g>
<g><path style="opacity:1" fill="#fd6b01" d="M 225.5,703.5 C 225.066,611.833 224.566,520.167 224,428.5C 217.674,424.669 211.007,421.669 204,419.5C 198.138,421.398 192.305,423.398 186.5,425.5C 191.492,422.487 197.325,419.82 204,417.5C 211.246,420.289 218.246,423.623 225,427.5C 225.368,502.168 225.868,576.834 226.5,651.5C 226.5,669.003 226.167,686.337 225.5,703.5 Z"/></g>
<g><path style="opacity:1" fill="#fefefe" d="M 873.5,726.5 C 867.647,730.089 861.313,732.589 854.5,734C 666.5,734.5 478.5,734.667 290.5,734.5C 276.275,731.462 265.775,723.462 259,710.5C 257.844,706.877 256.844,703.211 256,699.5C 255.5,684.837 255.333,670.17 255.5,655.5C 466.5,655.5 677.5,655.5 888.5,655.5C 888.667,671.17 888.5,686.837 888,702.5C 885.461,711.915 880.628,719.915 873.5,726.5 Z"/></g>
<g><path style="opacity:1" fill="#fe8a19" d="M 567.5,673.5 C 585.282,673.782 593.449,682.782 592,700.5C 585.958,713.625 576.124,717.792 562.5,713C 550.323,704.096 548.323,693.263 556.5,680.5C 558.316,679.185 559.983,677.685 561.5,676C 563.723,675.434 565.723,674.6 567.5,673.5 Z"/></g>
<g><path style="opacity:1" fill="#fc6b00" d="M 873.5,726.5 C 869.235,731.107 863.902,733.94 857.5,735C 667.764,735.833 478.764,735.666 290.5,734.5C 478.5,734.667 666.5,734.5 854.5,734C 861.313,732.589 867.647,730.089 873.5,726.5 Z"/></g>
<g><path style="opacity:1" fill="#fefefd" d="M 476.5,767.5 C 540.833,767.5 605.167,767.5 669.5,767.5C 669.5,785.833 669.5,804.167 669.5,822.5C 605.484,821.391 541.484,821.224 477.5,822C 476.508,803.91 476.174,785.743 476.5,767.5 Z"/></g>
</svg>
