<svg xmlns="http://www.w3.org/2000/svg" version="1.1" width="100px" height="100px" style="shape-rendering:geometricPrecision; text-rendering:geometricPrecision; image-rendering:optimizeQuality; fill-rule:evenodd; clip-rule:evenodd" xmlns:xlink="http://www.w3.org/1999/xlink" viewBox="0 0 1024 1024">
<g><path style="opacity:1" fill="#b24201" d="M 875.5,129.5 C 873.063,123.968 870.063,118.802 866.5,114C 862.509,113.513 859.842,111.346 858.5,107.5C 853.578,105.536 848.578,103.869 843.5,102.5C 843.389,101.883 843.056,101.383 842.5,101C 621.833,100.333 401.167,100.333 180.5,101C 179.584,101.278 178.918,101.778 178.5,102.5C 173.254,103.628 168.254,105.628 163.5,108.5C 160.475,112.849 157.142,116.849 153.5,120.5C 149.186,124.417 147.186,129.417 147.5,135.5C 146.833,135.833 146.167,136.167 145.5,136.5C 148.828,116.668 160.162,103.834 179.5,98C 400.5,97.3333 621.5,97.3333 842.5,98C 856.068,100.904 866.235,108.404 873,120.5C 874.908,123.206 875.741,126.206 875.5,129.5 Z"/></g>
<g><path style="opacity:1" fill="#bf5807" d="M 843.5,102.5 C 621.846,101.168 400.179,101.168 178.5,102.5C 178.918,101.778 179.584,101.278 180.5,101C 401.167,100.333 621.833,100.333 842.5,101C 843.056,101.383 843.389,101.883 843.5,102.5 Z"/></g>
<g><path style="opacity:1" fill="#d96708" d="M 843.5,102.5 C 848.578,103.869 853.578,105.536 858.5,107.5C 859.842,111.346 862.509,113.513 866.5,114C 870.063,118.802 873.063,123.968 875.5,129.5C 875.5,132.5 875.5,135.5 875.5,138.5C 875.833,273.668 875.5,408.668 874.5,543.5C 873.272,544.306 872.272,545.306 871.5,546.5C 873.063,531.063 873.73,515.563 873.5,500C 873.697,483.236 873.031,466.569 871.5,450C 872.2,378.126 872.867,306.126 873.5,234C 872.192,201.102 871.692,168.268 872,135.5C 870.625,133.063 870.125,130.397 870.5,127.5C 869.127,127.657 867.793,127.49 866.5,127C 866.833,126.667 867.167,126.333 867.5,126C 865.144,124.047 863.644,121.547 863,118.5C 862.15,119.424 861.15,119.424 860,118.5C 856.635,115.978 854.801,112.645 854.5,108.5C 850.89,107.376 847.224,106.376 843.5,105.5C 842.914,105.709 842.414,106.043 842,106.5C 839.887,104.627 837.387,103.627 834.5,103.5C 785.188,103.827 736.188,104.16 687.5,104.5C 685.181,103.936 682.847,103.436 680.5,103C 514.833,102.333 349.167,102.333 183.5,103C 172.373,106.012 163.373,111.346 156.5,119C 154.605,122.48 152.938,125.98 151.5,129.5C 152.01,126.461 152.677,123.461 153.5,120.5C 157.142,116.849 160.475,112.849 163.5,108.5C 168.254,105.628 173.254,103.628 178.5,102.5C 400.179,101.168 621.846,101.168 843.5,102.5 Z"/></g>
<g><path style="opacity:1" fill="#c64600" d="M 875.5,138.5 C 876.167,271.5 876.833,404.5 877.5,537.5C 876.859,543.78 874.859,549.447 871.5,554.5C 872.8,550.904 873.8,547.237 874.5,543.5C 875.5,408.668 875.833,273.668 875.5,138.5 Z"/></g>
<g><path style="opacity:1" fill="#cc5d07" d="M 153.5,120.5 C 152.677,123.461 152.01,126.461 151.5,129.5C 151.162,131.854 150.662,134.187 150,136.5C 149.333,272.5 149.333,408.5 150,544.5C 152.773,551.512 156.94,557.679 162.5,563C 163.094,563.464 163.761,563.631 164.5,563.5C 168.09,570.136 173.757,573.469 181.5,573.5C 180.791,574.404 179.791,574.737 178.5,574.5C 173.775,574.332 169.775,572.666 166.5,569.5C 160.49,564.654 155.323,558.987 151,552.5C 149.592,548.943 148.592,545.276 148,541.5C 147.5,406.167 147.333,270.834 147.5,135.5C 147.186,129.417 149.186,124.417 153.5,120.5 Z"/></g>
<g><path style="opacity:1" fill="#a32a02" d="M 875.5,129.5 C 876.268,130.263 876.768,131.263 877,132.5C 877.5,267.5 877.667,402.5 877.5,537.5C 876.833,404.5 876.167,271.5 875.5,138.5C 875.5,135.5 875.5,132.5 875.5,129.5 Z"/></g>
<g><path style="opacity:1" fill="#ab3301" d="M 147.5,135.5 C 147.333,270.834 147.5,406.167 148,541.5C 148.592,545.276 149.592,548.943 151,552.5C 155.323,558.987 160.49,564.654 166.5,569.5C 155.24,563.057 148.407,553.39 146,540.5C 145.5,405.834 145.333,271.167 145.5,136.5C 146.167,136.167 146.833,135.833 147.5,135.5 Z"/></g>
<g><path style="opacity:1" fill="#ed720a" d="M 871.5,546.5 C 868.051,551.786 864.717,557.119 861.5,562.5C 859.339,562.826 857.506,563.826 856,565.5C 853.979,564.764 852.479,565.597 851.5,568C 847.133,568.364 842.966,568.53 839,568.5C 838.667,567.5 838.333,566.5 838,565.5C 836.174,567.074 834.007,567.907 831.5,568C 832.308,568.308 832.975,568.808 833.5,569.5C 818.291,570.734 803.124,571.734 788,572.5C 786.667,571.833 785.333,571.167 784,570.5C 757.399,571.098 730.899,571.432 704.5,571.5C 701.397,571.077 698.564,570.077 696,568.5C 695.395,570.481 694.395,570.815 693,569.5C 680.37,572.6 667.537,572.6 654.5,569.5C 648.116,571.259 641.782,571.592 635.5,570.5C 631.89,570.795 628.39,571.462 625,572.5C 622.443,571.458 620.11,570.125 618,568.5C 617.25,569.126 616.416,569.626 615.5,570C 607.451,570.802 599.451,570.635 591.5,569.5C 581.007,570.907 570.507,571.907 560,572.5C 559,571.833 558,571.167 557,570.5C 539.284,570.876 521.951,571.209 505,571.5C 504.311,570.643 503.478,569.977 502.5,569.5C 500.068,570.4 497.568,571.066 495,571.5C 488.908,571.372 482.741,570.706 476.5,569.5C 474.631,570.068 472.797,570.734 471,571.5C 453.526,571.673 435.86,571.34 418,570.5C 416.667,571.167 415.333,571.833 414,572.5C 406.864,571.817 399.697,571.15 392.5,570.5C 372.466,571.538 352.633,571.538 333,570.5C 329,571.167 325,571.833 321,572.5C 319.333,571.833 317.667,571.167 316,570.5C 303.95,570.676 291.616,570.676 279,570.5C 278.333,571.167 277.667,571.833 277,572.5C 274.199,571.205 271.366,571.205 268.5,572.5C 264.926,571.687 261.426,570.687 258,569.5C 256.687,570.573 255.187,571.24 253.5,571.5C 249.875,571.124 246.375,571.124 243,571.5C 239.589,571.015 236.256,570.348 233,569.5C 229.534,570.202 226.034,570.869 222.5,571.5C 214.709,571.313 206.876,571.313 199,571.5C 193.848,570.627 188.681,569.793 183.5,569C 182.421,568.044 181.255,567.211 180,566.5C 178.316,568.066 176.316,569.066 174,569.5C 171.153,567.047 167.986,565.047 164.5,563.5C 163.761,563.631 163.094,563.464 162.5,563C 156.94,557.679 152.773,551.512 150,544.5C 149.333,408.5 149.333,272.5 150,136.5C 150.662,134.187 151.162,131.854 151.5,129.5C 152.938,125.98 154.605,122.48 156.5,119C 163.373,111.346 172.373,106.012 183.5,103C 349.167,102.333 514.833,102.333 680.5,103C 682.847,103.436 685.181,103.936 687.5,104.5C 736.188,104.16 785.188,103.827 834.5,103.5C 837.387,103.627 839.887,104.627 842,106.5C 842.414,106.043 842.914,105.709 843.5,105.5C 847.224,106.376 850.89,107.376 854.5,108.5C 854.801,112.645 856.635,115.978 860,118.5C 861.15,119.424 862.15,119.424 863,118.5C 863.644,121.547 865.144,124.047 867.5,126C 867.167,126.333 866.833,126.667 866.5,127C 867.793,127.49 869.127,127.657 870.5,127.5C 870.125,130.397 870.625,133.063 872,135.5C 871.692,168.268 872.192,201.102 873.5,234C 872.867,306.126 872.2,378.126 871.5,450C 873.031,466.569 873.697,483.236 873.5,500C 873.73,515.563 873.063,531.063 871.5,546.5 Z"/></g>
<g><path style="opacity:1" fill="#d66713" d="M 824.5,133.5 C 614.833,133.333 405.166,133.5 195.5,134C 194.244,134.417 193.577,135.25 193.5,136.5C 189.139,138.861 185.806,142.194 183.5,146.5C 182.778,146.918 182.278,147.584 182,148.5C 181.333,273.833 181.333,399.167 182,524.5C 182.167,399.333 182.667,274.333 183.5,149.5C 183.333,275.5 183.5,401.5 184,527.5C 186.314,531.975 189.48,535.642 193.5,538.5C 195.102,540.074 197.102,540.741 199.5,540.5C 407.497,542.499 615.831,543.166 824.5,542.5C 827.598,542.413 827.932,542.913 825.5,544C 819.747,544.236 813.913,545.069 808,546.5C 791.597,545.619 775.264,545.286 759,545.5C 755.158,545.407 751.491,546.074 748,547.5C 742.197,546.184 736.364,546.184 730.5,547.5C 729.252,546.96 728.085,546.293 727,545.5C 630.656,545.271 533.99,545.605 437,546.5C 365.667,545.833 294.333,545.167 223,544.5C 215.864,545.183 208.697,545.85 201.5,546.5C 198.299,545.547 195.299,544.214 192.5,542.5C 191.719,541.271 191.219,539.938 191,538.5C 190.667,538.833 190.333,539.167 190,539.5C 187.48,538.793 184.98,537.96 182.5,537C 182.833,536.667 183.167,536.333 183.5,536C 181.812,533.274 180.312,530.441 179,527.5C 178.175,508.593 178.341,489.76 179.5,471C 178.833,466.333 178.167,461.667 177.5,457C 178.517,416.142 178.517,375.142 177.5,334C 178.167,310.667 178.833,287.333 179.5,264C 178.337,224.904 178.17,185.738 179,146.5C 180.603,143.388 182.437,140.388 184.5,137.5C 183.496,135.323 184.162,134.989 186.5,136.5C 194.782,128.787 204.282,126.454 215,129.5C 216,128.833 217,128.167 218,127.5C 220.382,128.554 222.882,129.221 225.5,129.5C 225.233,126.225 226.233,125.392 228.5,127C 227.567,128.608 228.233,129.441 230.5,129.5C 233.167,128.167 235.833,128.167 238.5,129.5C 240.601,129.368 242.101,128.368 243,126.5C 243.5,127.667 244.333,128.5 245.5,129C 250.147,131.23 254.647,131.397 259,129.5C 266.667,130.167 274.333,130.833 282,131.5C 283.667,130.833 285.333,130.167 287,129.5C 287.333,130.167 287.667,130.833 288,131.5C 300.477,130.536 312.811,129.87 325,129.5C 339.1,130.964 353.267,131.797 367.5,132C 520.001,132.167 672.334,132.667 824.5,133.5 Z"/></g>
<g><path style="opacity:1" fill="#d96708" d="M 841.5,151.5 C 842.391,152.261 843.058,153.261 843.5,154.5C 843.433,160.864 843.1,167.53 842.5,174.5C 843.275,178.632 843.941,182.799 844.5,187C 843.893,195.389 843.226,203.722 842.5,212C 843.012,220.393 844.012,228.727 845.5,237C 844.23,299.42 844.23,363.087 845.5,428C 844.874,428.75 844.374,429.584 844,430.5C 843.828,452.406 843.328,474.239 842.5,496C 843.548,506.436 844.048,516.936 844,527.5C 841.865,529.367 840.365,531.7 839.5,534.5C 837.929,536.415 835.929,537.415 833.5,537.5C 837.377,534.413 839.711,530.413 840.5,525.5C 841.5,401.001 841.833,276.334 841.5,151.5 Z"/></g>
<g><path style="opacity:1" fill="#a42c00" d="M 183.5,146.5 C 183.5,147.5 183.5,148.5 183.5,149.5C 182.667,274.333 182.167,399.333 182,524.5C 181.333,399.167 181.333,273.833 182,148.5C 182.278,147.584 182.778,146.918 183.5,146.5 Z"/></g>
<g><path style="opacity:1" fill="#be521e" d="M 824.5,134.5 C 826.857,134.337 829.19,134.503 831.5,135C 833.845,137.677 836.512,140.01 839.5,142C 839.167,142.333 838.833,142.667 838.5,143C 840.035,145.638 841.035,148.472 841.5,151.5C 841.833,276.334 841.5,401.001 840.5,525.5C 840.167,525.5 839.833,525.5 839.5,525.5C 839.667,399.166 839.5,272.833 839,146.5C 836.06,140.047 831.226,136.047 824.5,134.5 Z"/></g>
<g><path style="opacity:1" fill="#fbfbfb" d="M 824.5,134.5 C 831.226,136.047 836.06,140.047 839,146.5C 839.5,272.833 839.667,399.166 839.5,525.5C 837.385,532.115 833.052,536.615 826.5,539C 615.473,539.83 404.473,539.663 193.5,538.5C 189.48,535.642 186.314,531.975 184,527.5C 183.5,401.5 183.333,275.5 183.5,149.5C 183.5,148.5 183.5,147.5 183.5,146.5C 185.806,142.194 189.139,138.861 193.5,136.5C 194.766,135.91 196.099,135.41 197.5,135C 406.5,134.5 615.5,134.333 824.5,134.5 Z"/></g>
<g><path style="opacity:1" fill="#ba5426" d="M 570.5,434.5 C 571.5,434.5 572.5,434.5 573.5,434.5C 570.285,436.856 566.619,438.356 562.5,439C 488.167,439.667 413.833,439.667 339.5,439C 337.277,438.434 335.277,437.6 333.5,436.5C 410.478,437.655 487.478,437.821 564.5,437C 566.852,436.76 568.852,435.927 570.5,434.5 Z"/></g>
<g><path style="opacity:1" fill="#bb4f09" d="M 670.5,422.5 C 674.889,424.347 679.222,426.513 683.5,429C 687.625,429.854 691.625,429.52 695.5,428C 696.376,425.854 697.709,424.021 699.5,422.5C 700.667,364.503 700.833,306.503 700,248.5C 696.345,241.93 690.845,239.763 683.5,242C 680.338,244.781 677.005,247.448 673.5,250C 671.5,250.333 669.5,250.667 667.5,251C 666.663,252.011 666.33,253.178 666.5,254.5C 666.611,255.117 666.944,255.617 667.5,256C 663.438,256.531 660.104,258.364 657.5,261.5C 654.387,262.556 651.387,263.889 648.5,265.5C 647.232,264.572 645.899,264.405 644.5,265C 641.594,267.619 638.261,269.453 634.5,270.5C 650.433,259.857 666.767,249.691 683.5,240C 692.205,238.269 698.371,241.436 702,249.5C 702.667,306.833 702.667,364.167 702,421.5C 698.685,429.242 692.852,432.408 684.5,431C 679.27,428.894 674.603,426.061 670.5,422.5 Z"/></g>
<g><path style="opacity:1" fill="#c75112" d="M 578.5,243.5 C 580.746,245.649 582.246,248.316 583,251.5C 583.667,307.5 583.667,363.5 583,419.5C 582.76,421.852 581.927,423.852 580.5,425.5C 581.651,366.855 581.818,308.189 581,249.5C 579.878,247.593 579.045,245.593 578.5,243.5 Z"/></g>
<g><path style="opacity:1" fill="#ad3f05" d="M 610.5,285.5 C 607.018,288.484 604.518,292.151 603,296.5C 602.333,322.167 602.333,347.833 603,373.5C 603.139,376.445 604.306,378.779 606.5,380.5C 607.167,381.833 608.167,382.833 609.5,383.5C 611.5,385.167 613.5,386.833 615.5,388.5C 608.885,386.385 604.385,382.052 602,375.5C 601.333,348.5 601.333,321.5 602,294.5C 603.681,290.321 606.515,287.321 610.5,285.5 Z"/></g>
<g><path style="opacity:1" fill="#dd6a09" d="M 565.5,236.5 C 565.082,237.222 564.416,237.722 563.5,238C 560.167,238.167 556.833,238.333 553.5,238.5C 482.738,238.797 411.905,238.464 341,237.5C 337.383,238.04 335.216,240.04 334.5,243.5C 333.448,243.351 332.448,243.517 331.5,244C 332.711,244.893 332.711,245.726 331.5,246.5C 329.459,247.236 327.459,248.069 325.5,249C 324.535,252.736 324.535,256.569 325.5,260.5C 323.275,264.304 323.275,267.804 325.5,271C 324.764,276.446 324.097,281.946 323.5,287.5C 324.008,295.143 324.675,302.643 325.5,310C 324.833,310.333 324.167,310.667 323.5,311C 324.683,315.406 324.349,319.74 322.5,324C 323.167,325 323.833,326 324.5,327C 323.845,338.701 323.511,350.701 323.5,363C 323.305,365.352 323.972,367.352 325.5,369C 324.833,369.333 324.167,369.667 323.5,370C 324.155,378.327 324.155,386.827 323.5,395.5C 323.763,400.947 324.763,406.113 326.5,411C 324.968,413.33 325.302,415.33 327.5,417C 326.672,417.915 325.672,418.581 324.5,419C 325.833,420.333 325.833,421.667 324.5,423C 326.387,426.519 328.553,429.686 331,432.5C 331.945,432.095 332.612,431.428 333,430.5C 336.07,431.931 339.07,433.597 342,435.5C 342.667,434.833 343.333,434.167 344,433.5C 354.795,434.871 365.795,435.537 377,435.5C 431.655,435.444 486.155,435.444 540.5,435.5C 546.5,435.333 552.5,435.167 558.5,435C 561.449,434.573 564.283,433.739 567,432.5C 568.434,432.862 569.601,433.528 570.5,434.5C 568.852,435.927 566.852,436.76 564.5,437C 487.478,437.821 410.478,437.655 333.5,436.5C 330.802,436.155 328.802,434.822 327.5,432.5C 324.885,428.932 323.052,424.932 322,420.5C 321.333,364.167 321.333,307.833 322,251.5C 322.638,248.236 323.804,245.236 325.5,242.5C 326.638,239.914 328.638,238.247 331.5,237.5C 333.179,237.108 334.846,236.608 336.5,236C 413.001,235.168 489.334,235.334 565.5,236.5 Z"/></g>
<g><path style="opacity:1" fill="#dd6c0b" d="M 569.5,237.5 C 570.708,238.234 572.041,238.567 573.5,238.5C 576.189,239.189 577.856,240.856 578.5,243.5C 579.045,245.593 579.878,247.593 581,249.5C 581.818,308.189 581.651,366.855 580.5,425.5C 579.306,429.363 576.973,432.363 573.5,434.5C 572.5,434.5 571.5,434.5 570.5,434.5C 571.209,433.596 572.209,433.263 573.5,433.5C 574.379,429.049 575.879,424.716 578,420.5C 578.667,365.5 578.667,310.5 578,255.5C 577.1,251.166 576.266,246.832 575.5,242.5C 572.59,241.643 569.924,240.977 567.5,240.5C 567.167,240.167 566.833,239.833 566.5,239.5C 567.602,238.824 568.602,238.158 569.5,237.5 Z"/></g>
<g><path style="opacity:1" fill="#be480b" d="M 325.5,242.5 C 323.804,245.236 322.638,248.236 322,251.5C 321.333,307.833 321.333,364.167 322,420.5C 323.052,424.932 324.885,428.932 327.5,432.5C 323.485,429.148 320.985,424.815 320,419.5C 319.333,363.5 319.333,307.5 320,251.5C 320.843,247.8 322.676,244.8 325.5,242.5 Z"/></g>
<g><path style="opacity:1" fill="#dd6104" d="M 634.5,270.5 C 633.657,272.173 632.324,273.34 630.5,274C 630.957,274.414 631.291,274.914 631.5,275.5C 628.764,277.471 625.764,278.971 622.5,280C 623.711,280.893 623.711,281.726 622.5,282.5C 616.831,285.113 612.164,288.946 608.5,294C 607.552,294.483 606.552,294.649 605.5,294.5C 604.669,303.817 604.002,313.15 603.5,322.5C 604.329,340.491 604.663,358.491 604.5,376.5C 605.552,376.351 606.552,376.517 607.5,377C 606.663,378.011 606.33,379.178 606.5,380.5C 604.306,378.779 603.139,376.445 603,373.5C 602.333,347.833 602.333,322.167 603,296.5C 604.518,292.151 607.018,288.484 610.5,285.5C 618.156,280.003 626.156,275.003 634.5,270.5 Z"/></g>
<g><path style="opacity:1" fill="#e16a08" d="M 670.5,422.5 C 651.656,411.915 633.323,400.582 615.5,388.5C 613.5,386.833 611.5,385.167 609.5,383.5C 609.735,382.903 610.235,382.57 611,382.5C 616.616,385.059 622.116,387.725 627.5,390.5C 627.77,394.206 629.603,395.539 633,394.5C 633.833,396 635,397.167 636.5,398C 640.217,399.423 643.717,401.256 647,403.5C 647.423,402.044 648.256,401.544 649.5,402C 648.663,403.011 648.33,404.178 648.5,405.5C 654.723,407.278 660.389,410.111 665.5,414C 665.043,414.414 664.709,414.914 664.5,415.5C 670.889,418.599 677.222,421.599 683.5,424.5C 683.5,425.5 683.5,426.5 683.5,427.5C 686.5,427.5 689.5,427.5 692.5,427.5C 692.5,426.5 692.5,425.5 692.5,424.5C 695.109,424.17 696.776,422.67 697.5,420C 697.694,411.696 697.361,403.362 696.5,395C 697.167,392 697.833,389 698.5,386C 697.042,383.923 696.376,381.59 696.5,379C 696.93,373.586 697.597,368.253 698.5,363C 697.833,360 697.167,357 696.5,354C 697.193,340.909 697.193,327.743 696.5,314.5C 697.075,311.135 697.742,307.802 698.5,304.5C 697.259,297.597 696.593,290.764 696.5,284C 697.455,273.577 698.122,263.244 698.5,253C 696.919,251.172 695.585,249.172 694.5,247C 690.576,244.03 686.742,244.196 683,247.5C 681.16,246.167 680.66,246.334 681.5,248C 680.007,249.368 678.507,249.535 677,248.5C 673.944,251.345 670.444,253.345 666.5,254.5C 666.33,253.178 666.663,252.011 667.5,251C 669.5,250.667 671.5,250.333 673.5,250C 677.005,247.448 680.338,244.781 683.5,242C 690.845,239.763 696.345,241.93 700,248.5C 700.833,306.503 700.667,364.503 699.5,422.5C 697.709,424.021 696.376,425.854 695.5,428C 691.625,429.52 687.625,429.854 683.5,429C 679.222,426.513 674.889,424.347 670.5,422.5 Z"/></g>
<g><path style="opacity:1" fill="#ee730a" d="M 609.5,383.5 C 608.167,382.833 607.167,381.833 606.5,380.5C 606.33,379.178 606.663,378.011 607.5,377C 606.552,376.517 605.552,376.351 604.5,376.5C 604.663,358.491 604.329,340.491 603.5,322.5C 604.002,313.15 604.669,303.817 605.5,294.5C 606.552,294.649 607.552,294.483 608.5,294C 612.164,288.946 616.831,285.113 622.5,282.5C 623.711,281.726 623.711,280.893 622.5,280C 625.764,278.971 628.764,277.471 631.5,275.5C 631.291,274.914 630.957,274.414 630.5,274C 632.324,273.34 633.657,272.173 634.5,270.5C 638.261,269.453 641.594,267.619 644.5,265C 645.899,264.405 647.232,264.572 648.5,265.5C 651.387,263.889 654.387,262.556 657.5,261.5C 660.104,258.364 663.438,256.531 667.5,256C 666.944,255.617 666.611,255.117 666.5,254.5C 670.444,253.345 673.944,251.345 677,248.5C 678.507,249.535 680.007,249.368 681.5,248C 680.66,246.334 681.16,246.167 683,247.5C 686.742,244.196 690.576,244.03 694.5,247C 695.585,249.172 696.919,251.172 698.5,253C 698.122,263.244 697.455,273.577 696.5,284C 696.593,290.764 697.259,297.597 698.5,304.5C 697.742,307.802 697.075,311.135 696.5,314.5C 697.193,327.743 697.193,340.909 696.5,354C 697.167,357 697.833,360 698.5,363C 697.597,368.253 696.93,373.586 696.5,379C 696.376,381.59 697.042,383.923 698.5,386C 697.833,389 697.167,392 696.5,395C 697.361,403.362 697.694,411.696 697.5,420C 696.776,422.67 695.109,424.17 692.5,424.5C 692.5,425.5 692.5,426.5 692.5,427.5C 689.5,427.5 686.5,427.5 683.5,427.5C 683.5,426.5 683.5,425.5 683.5,424.5C 677.222,421.599 670.889,418.599 664.5,415.5C 664.709,414.914 665.043,414.414 665.5,414C 660.389,410.111 654.723,407.278 648.5,405.5C 648.33,404.178 648.663,403.011 649.5,402C 648.256,401.544 647.423,402.044 647,403.5C 643.717,401.256 640.217,399.423 636.5,398C 635,397.167 633.833,396 633,394.5C 629.603,395.539 627.77,394.206 627.5,390.5C 622.116,387.725 616.616,385.059 611,382.5C 610.235,382.57 609.735,382.903 609.5,383.5 Z"/></g>
<g><path style="opacity:1" fill="#ee730a" d="M 565.5,236.5 C 567.099,236.232 568.432,236.566 569.5,237.5C 568.602,238.158 567.602,238.824 566.5,239.5C 566.833,239.833 567.167,240.167 567.5,240.5C 569.924,240.977 572.59,241.643 575.5,242.5C 576.266,246.832 577.1,251.166 578,255.5C 578.667,310.5 578.667,365.5 578,420.5C 575.879,424.716 574.379,429.049 573.5,433.5C 572.209,433.263 571.209,433.596 570.5,434.5C 569.601,433.528 568.434,432.862 567,432.5C 564.283,433.739 561.449,434.573 558.5,435C 552.5,435.167 546.5,435.333 540.5,435.5C 486.155,435.444 431.655,435.444 377,435.5C 365.795,435.537 354.795,434.871 344,433.5C 343.333,434.167 342.667,434.833 342,435.5C 339.07,433.597 336.07,431.931 333,430.5C 332.612,431.428 331.945,432.095 331,432.5C 328.553,429.686 326.387,426.519 324.5,423C 325.833,421.667 325.833,420.333 324.5,419C 325.672,418.581 326.672,417.915 327.5,417C 325.302,415.33 324.968,413.33 326.5,411C 324.763,406.113 323.763,400.947 323.5,395.5C 324.155,386.827 324.155,378.327 323.5,370C 324.167,369.667 324.833,369.333 325.5,369C 323.972,367.352 323.305,365.352 323.5,363C 323.511,350.701 323.845,338.701 324.5,327C 323.833,326 323.167,325 322.5,324C 324.349,319.74 324.683,315.406 323.5,311C 324.167,310.667 324.833,310.333 325.5,310C 324.675,302.643 324.008,295.143 323.5,287.5C 324.097,281.946 324.764,276.446 325.5,271C 323.275,267.804 323.275,264.304 325.5,260.5C 324.535,256.569 324.535,252.736 325.5,249C 327.459,248.069 329.459,247.236 331.5,246.5C 332.711,245.726 332.711,244.893 331.5,244C 332.448,243.517 333.448,243.351 334.5,243.5C 335.216,240.04 337.383,238.04 341,237.5C 411.905,238.464 482.738,238.797 553.5,238.5C 556.833,238.333 560.167,238.167 563.5,238C 564.416,237.722 565.082,237.222 565.5,236.5 Z"/></g>
<g><path style="opacity:1" fill="#c56026" d="M 573.5,238.5 C 572.041,238.567 570.708,238.234 569.5,237.5C 568.432,236.566 567.099,236.232 565.5,236.5C 489.334,235.334 413.001,235.168 336.5,236C 334.846,236.608 333.179,237.108 331.5,237.5C 333.385,235.689 335.719,234.522 338.5,234C 413.5,233.333 488.5,233.333 563.5,234C 567.366,234.612 570.699,236.112 573.5,238.5 Z"/></g>
<g><path style="opacity:1" fill="#953a08" d="M 824.5,133.5 C 824.5,133.833 824.5,134.167 824.5,134.5C 615.5,134.333 406.5,134.5 197.5,135C 196.099,135.41 194.766,135.91 193.5,136.5C 193.577,135.25 194.244,134.417 195.5,134C 405.166,133.5 614.833,133.333 824.5,133.5 Z"/></g>
<g><path style="opacity:1" fill="#993d0c" d="M 839.5,525.5 C 839.833,525.5 840.167,525.5 840.5,525.5C 839.711,530.413 837.377,534.413 833.5,537.5C 830.792,539.353 827.792,540.353 824.5,540.5C 616.167,540.5 407.833,540.5 199.5,540.5C 197.102,540.741 195.102,540.074 193.5,538.5C 404.473,539.663 615.473,539.83 826.5,539C 833.052,536.615 837.385,532.115 839.5,525.5 Z"/></g>
<g><path style="opacity:1" fill="#c34900" d="M 199.5,540.5 C 407.833,540.5 616.167,540.5 824.5,540.5C 824.5,541.167 824.5,541.833 824.5,542.5C 615.831,543.166 407.497,542.499 199.5,540.5 Z"/></g>
<g><path style="opacity:1" fill="#e06f08" d="M 861.5,562.5 C 861.279,563.735 860.612,564.735 859.5,565.5C 855.019,567.831 850.685,570.331 846.5,573C 624.834,573.5 403.167,573.667 181.5,573.5C 173.757,573.469 168.09,570.136 164.5,563.5C 167.986,565.047 171.153,567.047 174,569.5C 176.316,569.066 178.316,568.066 180,566.5C 181.255,567.211 182.421,568.044 183.5,569C 188.681,569.793 193.848,570.627 199,571.5C 206.876,571.313 214.709,571.313 222.5,571.5C 226.034,570.869 229.534,570.202 233,569.5C 236.256,570.348 239.589,571.015 243,571.5C 246.375,571.124 249.875,571.124 253.5,571.5C 255.187,571.24 256.687,570.573 258,569.5C 261.426,570.687 264.926,571.687 268.5,572.5C 271.366,571.205 274.199,571.205 277,572.5C 277.667,571.833 278.333,571.167 279,570.5C 291.616,570.676 303.95,570.676 316,570.5C 317.667,571.167 319.333,571.833 321,572.5C 325,571.833 329,571.167 333,570.5C 352.633,571.538 372.466,571.538 392.5,570.5C 399.697,571.15 406.864,571.817 414,572.5C 415.333,571.833 416.667,571.167 418,570.5C 435.86,571.34 453.526,571.673 471,571.5C 472.797,570.734 474.631,570.068 476.5,569.5C 482.741,570.706 488.908,571.372 495,571.5C 497.568,571.066 500.068,570.4 502.5,569.5C 503.478,569.977 504.311,570.643 505,571.5C 521.951,571.209 539.284,570.876 557,570.5C 558,571.167 559,571.833 560,572.5C 570.507,571.907 581.007,570.907 591.5,569.5C 599.451,570.635 607.451,570.802 615.5,570C 616.416,569.626 617.25,569.126 618,568.5C 620.11,570.125 622.443,571.458 625,572.5C 628.39,571.462 631.89,570.795 635.5,570.5C 641.782,571.592 648.116,571.259 654.5,569.5C 667.537,572.6 680.37,572.6 693,569.5C 694.395,570.815 695.395,570.481 696,568.5C 698.564,570.077 701.397,571.077 704.5,571.5C 730.899,571.432 757.399,571.098 784,570.5C 785.333,571.167 786.667,571.833 788,572.5C 803.124,571.734 818.291,570.734 833.5,569.5C 832.975,568.808 832.308,568.308 831.5,568C 834.007,567.907 836.174,567.074 838,565.5C 838.333,566.5 838.667,567.5 839,568.5C 842.966,568.53 847.133,568.364 851.5,568C 852.479,565.597 853.979,564.764 856,565.5C 857.506,563.826 859.339,562.826 861.5,562.5 Z"/></g>
<g><path style="opacity:1" fill="#d24e0a" d="M 874.5,543.5 C 873.8,547.237 872.8,550.904 871.5,554.5C 865.287,565.454 855.953,572.287 843.5,575C 621.666,575.833 400,575.666 178.5,574.5C 179.791,574.737 180.791,574.404 181.5,573.5C 403.167,573.667 624.834,573.5 846.5,573C 850.685,570.331 855.019,567.831 859.5,565.5C 860.612,564.735 861.279,563.735 861.5,562.5C 864.717,557.119 868.051,551.786 871.5,546.5C 872.272,545.306 873.272,544.306 874.5,543.5 Z"/></g>
<g><path style="opacity:1" fill="#af4c19" d="M 303.5,619.5 C 288.897,617.426 274.563,618.426 260.5,622.5C 271.13,617.187 282.464,615.354 294.5,617C 297.797,617.204 300.797,618.037 303.5,619.5 Z"/></g>
<g><path style="opacity:1" fill="#ee730a" d="M 263.5,738.5 C 261.046,738.679 258.879,738.013 257,736.5C 256.228,736.645 255.561,736.978 255,737.5C 251.499,735.512 248.332,733.178 245.5,730.5C 240.77,723.387 236.27,716.054 232,708.5C 230.89,706.603 230.724,704.77 231.5,703C 230.207,702.51 228.873,702.343 227.5,702.5C 226.145,690.493 226.311,678.493 228,666.5C 231.027,660.121 233.361,653.454 235,646.5C 236.508,644.162 238.675,643.162 241.5,643.5C 241.351,642.448 241.517,641.448 242,640.5C 249.751,632.7 258.917,627.033 269.5,623.5C 280.011,621.564 290.511,620.897 301,621.5C 301.508,623.904 302.675,624.571 304.5,623.5C 305.386,624.325 305.719,625.325 305.5,626.5C 308.329,626.369 309.662,627.369 309.5,629.5C 310.425,628.359 311.259,628.359 312,629.5C 312.333,631.167 312.667,632.833 313,634.5C 314.019,633.313 315.186,632.313 316.5,631.5C 318.336,632.919 320.336,634.086 322.5,635C 323.337,636.011 323.67,637.178 323.5,638.5C 325.199,638.34 326.866,638.506 328.5,639C 329.833,641.667 331.833,643.667 334.5,645C 334.167,645.333 333.833,645.667 333.5,646C 334.849,646.772 335.682,647.939 336,649.5C 336.308,648.692 336.808,648.025 337.5,647.5C 338.354,648.948 339.354,650.281 340.5,651.5C 340.291,652.086 339.957,652.586 339.5,653C 341.422,654.46 342.089,656.127 341.5,658C 344.245,659.799 345.245,662.132 344.5,665C 345.167,666.333 345.833,667.667 346.5,669C 346.355,669.772 346.022,670.439 345.5,671C 347.61,674.165 348.61,677.665 348.5,681.5C 347.998,684.009 347.998,686.342 348.5,688.5C 347.926,690.059 347.26,691.559 346.5,693C 347.167,693.333 347.833,693.667 348.5,694C 346.606,695.101 345.939,696.434 346.5,698C 344.896,702.159 343.229,706.326 341.5,710.5C 338.65,712.865 336.816,715.865 336,719.5C 332.823,721.511 330.323,724.178 328.5,727.5C 326.547,728.024 324.88,729.024 323.5,730.5C 322.549,729.674 321.549,729.508 320.5,730C 321.337,731.011 321.67,732.178 321.5,733.5C 315.89,736.289 309.89,737.956 303.5,738.5C 303.649,739.552 303.483,740.552 303,741.5C 298.921,740.371 294.755,740.204 290.5,741C 290,741.5 289.5,742 289,742.5C 280.969,740.799 272.469,739.466 263.5,738.5 Z"/></g>
<g><path style="opacity:1" fill="#ee730a" d="M 566.5,717.5 C 565.25,717.423 564.417,716.756 564,715.5C 557.806,724.419 549.806,730.419 540,733.5C 538.354,731.859 537.354,732.193 537,734.5C 536.667,733.167 536.333,731.833 536,730.5C 535.716,732.886 534.716,733.552 533,732.5C 529.18,736.001 524.847,737.001 520,735.5C 518.991,737.025 518.491,738.692 518.5,740.5C 514.344,739.544 510.177,739.878 506,741.5C 500.621,741.066 495.454,739.733 490.5,737.5C 492.078,736.702 493.744,736.202 495.5,736C 493.39,735.446 491.39,734.612 489.5,733.5C 486.674,737.15 484.007,736.817 481.5,732.5C 480.914,732.709 480.414,733.043 480,733.5C 478.805,730.97 476.972,728.97 474.5,727.5C 474.167,727.833 473.833,728.167 473.5,728.5C 474.263,729.719 475.263,730.719 476.5,731.5C 473.612,732.06 471.279,730.893 469.5,728C 469.833,727.667 470.167,727.333 470.5,727C 466.647,723.984 462.647,721.151 458.5,718.5C 457.587,716.914 457.587,715.414 458.5,714C 457.376,713.751 456.376,713.251 455.5,712.5C 453.194,707.06 451.527,701.394 450.5,695.5C 451.552,695.649 452.552,695.483 453.5,695C 452.232,692.859 451.565,690.526 451.5,688C 452.731,682.833 452.398,677.667 450.5,672.5C 451.071,668.007 452.237,663.674 454,659.5C 454.333,660.167 454.667,660.833 455,661.5C 457.23,655.333 460.063,649.333 463.5,643.5C 470.234,637.734 476.9,631.901 483.5,626C 487.97,624.145 492.303,622.145 496.5,620C 504.795,618.233 513.129,618.233 521.5,620C 529.895,622.578 538.229,625.578 546.5,629C 546.167,629.333 545.833,629.667 545.5,630C 547.667,631.5 549.5,633.333 551,635.5C 551.333,635.167 551.667,634.833 552,634.5C 553.177,636.176 554.677,637.509 556.5,638.5C 557.028,641.861 558.861,644.194 562,645.5C 563.534,649.403 565.7,652.903 568.5,656C 568.167,656.333 567.833,656.667 567.5,657C 569.34,660.258 571.007,663.591 572.5,667C 571.941,667.725 571.608,668.558 571.5,669.5C 573.322,676.38 573.989,683.213 573.5,690C 572.839,694.824 571.339,699.324 569,703.5C 569.295,708.209 568.462,712.876 566.5,717.5 Z"/></g>
<g><path style="opacity:1" fill="#ee730a" d="M 796.5,655.5 C 798.585,657.684 799.585,660.351 799.5,663.5C 800.573,673.828 800.407,684.161 799,694.5C 797.667,696.167 796.333,697.833 795,699.5C 794.605,701.179 794.772,702.845 795.5,704.5C 795.308,706.857 794.142,708.524 792,709.5C 792.034,716.454 788.868,721.121 782.5,723.5C 782.881,725.942 782.214,726.609 780.5,725.5C 778.801,729.515 775.801,731.848 771.5,732.5C 771.62,735.205 770.62,735.872 768.5,734.5C 765.54,735.625 762.54,736.625 759.5,737.5C 761.078,738.298 762.744,738.798 764.5,739C 761.931,739.898 759.598,741.065 757.5,742.5C 747.26,744.431 736.927,744.931 726.5,744C 721.314,742.129 716.148,740.296 711,738.5C 710.228,738.645 709.561,738.978 709,739.5C 708.155,736.815 706.322,735.149 703.5,734.5C 702.614,733.675 702.281,732.675 702.5,731.5C 701.5,731.5 700.5,731.5 699.5,731.5C 699.688,729.897 699.188,728.563 698,727.5C 697.667,727.833 697.333,728.167 697,728.5C 696.626,727.584 696.126,726.75 695.5,726C 692.353,723.632 688.853,721.799 685,720.5C 682.983,713.63 679.816,707.463 675.5,702C 673.491,690.592 672.991,679.092 674,667.5C 674.333,668.833 674.667,670.167 675,671.5C 675.78,668.488 676.947,665.655 678.5,663C 678.043,662.586 677.709,662.086 677.5,661.5C 681.908,657.02 684.408,651.686 685,645.5C 688.33,640.082 692.83,635.916 698.5,633C 700.845,630.986 702.845,628.653 704.5,626C 707.025,625.576 709.025,624.41 710.5,622.5C 719.945,621.273 729.445,620.273 739,619.5C 751.151,619.213 761.651,623.046 770.5,631C 771.833,631.333 773.167,631.667 774.5,632C 777.201,635.701 780.534,638.701 784.5,641C 785.71,644.113 787.71,646.613 790.5,648.5C 791.747,650.323 792.414,652.323 792.5,654.5C 793.959,654.433 795.292,654.766 796.5,655.5 Z"/></g>
<g><path style="opacity:1" fill="#cf5d0e" d="M 765.5,623.5 C 771.161,627.371 777.161,631.704 783.5,636.5C 789.56,641.61 793.893,647.943 796.5,655.5C 795.292,654.766 793.959,654.433 792.5,654.5C 792.414,652.323 791.747,650.323 790.5,648.5C 787.71,646.613 785.71,644.113 784.5,641C 780.534,638.701 777.201,635.701 774.5,632C 773.167,631.667 771.833,631.333 770.5,631C 761.651,623.046 751.151,619.213 739,619.5C 729.445,620.273 719.945,621.273 710.5,622.5C 713.715,620.144 717.381,618.644 721.5,618C 736.943,614.791 751.609,616.625 765.5,623.5 Z"/></g>
<g><path style="opacity:1" fill="#b14711" d="M 765.5,623.5 C 772.623,626.291 778.623,630.625 783.5,636.5C 777.161,631.704 771.161,627.371 765.5,623.5 Z"/></g>
<g><path style="opacity:1" fill="#d05e0e" d="M 566.5,717.5 C 568.462,712.876 569.295,708.209 569,703.5C 571.339,699.324 572.839,694.824 573.5,690C 573.989,683.213 573.322,676.38 571.5,669.5C 571.608,668.558 571.941,667.725 572.5,667C 571.007,663.591 569.34,660.258 567.5,657C 567.833,656.667 568.167,656.333 568.5,656C 565.7,652.903 563.534,649.403 562,645.5C 558.861,644.194 557.028,641.861 556.5,638.5C 554.677,637.509 553.177,636.176 552,634.5C 551.667,634.833 551.333,635.167 551,635.5C 549.5,633.333 547.667,631.5 545.5,630C 545.833,629.667 546.167,629.333 546.5,629C 538.229,625.578 529.895,622.578 521.5,620C 513.129,618.233 504.795,618.233 496.5,620C 492.303,622.145 487.97,624.145 483.5,626C 476.9,631.901 470.234,637.734 463.5,643.5C 460.063,649.333 457.23,655.333 455,661.5C 454.667,660.833 454.333,660.167 454,659.5C 452.237,663.674 451.071,668.007 450.5,672.5C 452.398,677.667 452.731,682.833 451.5,688C 451.565,690.526 452.232,692.859 453.5,695C 452.552,695.483 451.552,695.649 450.5,695.5C 451.527,701.394 453.194,707.06 455.5,712.5C 456.376,713.251 457.376,713.751 458.5,714C 457.587,715.414 457.587,716.914 458.5,718.5C 454.668,714.181 451.835,709.181 450,703.5C 441.124,671.123 450.29,645.289 477.5,626C 508.076,610.57 535.909,614.404 561,637.5C 579.246,659.994 582.579,684.66 571,711.5C 569.723,713.747 568.223,715.747 566.5,717.5 Z"/></g>
<g><path style="opacity:1" fill="#bc500f" d="M 346.5,655.5 C 350.945,663.117 352.945,671.45 352.5,680.5C 353.367,692.199 350.7,702.866 344.5,712.5C 351.705,693.772 352.372,674.772 346.5,655.5 Z"/></g>
<g><path style="opacity:1" fill="#df6809" d="M 303.5,619.5 C 323.92,624.255 338.253,636.255 346.5,655.5C 352.372,674.772 351.705,693.772 344.5,712.5C 337.455,727.213 326.122,736.879 310.5,741.5C 295.145,745.422 279.812,745.422 264.5,741.5C 263.614,740.675 263.281,739.675 263.5,738.5C 272.469,739.466 280.969,740.799 289,742.5C 289.5,742 290,741.5 290.5,741C 294.755,740.204 298.921,740.371 303,741.5C 303.483,740.552 303.649,739.552 303.5,738.5C 309.89,737.956 315.89,736.289 321.5,733.5C 321.67,732.178 321.337,731.011 320.5,730C 321.549,729.508 322.549,729.674 323.5,730.5C 324.88,729.024 326.547,728.024 328.5,727.5C 330.323,724.178 332.823,721.511 336,719.5C 336.816,715.865 338.65,712.865 341.5,710.5C 343.229,706.326 344.896,702.159 346.5,698C 345.939,696.434 346.606,695.101 348.5,694C 347.833,693.667 347.167,693.333 346.5,693C 347.26,691.559 347.926,690.059 348.5,688.5C 347.998,686.342 347.998,684.009 348.5,681.5C 348.61,677.665 347.61,674.165 345.5,671C 346.022,670.439 346.355,669.772 346.5,669C 345.833,667.667 345.167,666.333 344.5,665C 345.245,662.132 344.245,659.799 341.5,658C 342.089,656.127 341.422,654.46 339.5,653C 339.957,652.586 340.291,652.086 340.5,651.5C 339.354,650.281 338.354,648.948 337.5,647.5C 336.808,648.025 336.308,648.692 336,649.5C 335.682,647.939 334.849,646.772 333.5,646C 333.833,645.667 334.167,645.333 334.5,645C 331.833,643.667 329.833,641.667 328.5,639C 326.866,638.506 325.199,638.34 323.5,638.5C 323.67,637.178 323.337,636.011 322.5,635C 320.336,634.086 318.336,632.919 316.5,631.5C 315.186,632.313 314.019,633.313 313,634.5C 312.667,632.833 312.333,631.167 312,629.5C 311.259,628.359 310.425,628.359 309.5,629.5C 309.662,627.369 308.329,626.369 305.5,626.5C 305.719,625.325 305.386,624.325 304.5,623.5C 302.675,624.571 301.508,623.904 301,621.5C 290.511,620.897 280.011,621.564 269.5,623.5C 258.917,627.033 249.751,632.7 242,640.5C 241.517,641.448 241.351,642.448 241.5,643.5C 238.675,643.162 236.508,644.162 235,646.5C 233.361,653.454 231.027,660.121 228,666.5C 226.311,678.493 226.145,690.493 227.5,702.5C 228.873,702.343 230.207,702.51 231.5,703C 230.724,704.77 230.89,706.603 232,708.5C 236.27,716.054 240.77,723.387 245.5,730.5C 243.427,728.42 241.093,726.754 238.5,725.5C 234.338,721.999 231.338,717.665 229.5,712.5C 223.87,699.386 221.703,685.72 223,671.5C 224.603,666.193 226.103,660.86 227.5,655.5C 233.439,639.561 244.439,628.561 260.5,622.5C 274.563,618.426 288.897,617.426 303.5,619.5 Z"/></g>
<g><path style="opacity:1" fill="#b1450f" d="M 227.5,655.5 C 226.103,660.86 224.603,666.193 223,671.5C 221.703,685.72 223.87,699.386 229.5,712.5C 226.911,708.98 225.078,704.98 224,700.5C 221.705,690.275 221.039,679.942 222,669.5C 222.972,664.405 224.805,659.738 227.5,655.5 Z"/></g>
<g><path style="opacity:1" fill="#d15c11" d="M 710.5,622.5 C 709.025,624.41 707.025,625.576 704.5,626C 702.845,628.653 700.845,630.986 698.5,633C 692.83,635.916 688.33,640.082 685,645.5C 684.408,651.686 681.908,657.02 677.5,661.5C 677.709,662.086 678.043,662.586 678.5,663C 676.947,665.655 675.78,668.488 675,671.5C 674.667,670.167 674.333,668.833 674,667.5C 672.991,679.092 673.491,690.592 675.5,702C 679.816,707.463 682.983,713.63 685,720.5C 688.853,721.799 692.353,723.632 695.5,726C 696.126,726.75 696.626,727.584 697,728.5C 697.333,728.167 697.667,727.833 698,727.5C 699.188,728.563 699.688,729.897 699.5,731.5C 700.5,731.5 701.5,731.5 702.5,731.5C 702.281,732.675 702.614,733.675 703.5,734.5C 706.322,735.149 708.155,736.815 709,739.5C 709.561,738.978 710.228,738.645 711,738.5C 716.148,740.296 721.314,742.129 726.5,744C 736.927,744.931 747.26,744.431 757.5,742.5C 728.447,751.427 703.947,744.427 684,721.5C 672.749,705.595 668.749,687.928 672,668.5C 677.12,646.56 689.953,631.226 710.5,622.5 Z"/></g>
<g><path style="opacity:1" fill="#ce5d12" d="M 799.5,663.5 C 805.844,685.892 801.677,706.225 787,724.5C 778.785,733.189 768.951,739.189 757.5,742.5C 759.598,741.065 761.931,739.898 764.5,739C 762.744,738.798 761.078,738.298 759.5,737.5C 762.54,736.625 765.54,735.625 768.5,734.5C 770.62,735.872 771.62,735.205 771.5,732.5C 775.801,731.848 778.801,729.515 780.5,725.5C 782.214,726.609 782.881,725.942 782.5,723.5C 788.868,721.121 792.034,716.454 792,709.5C 794.142,708.524 795.308,706.857 795.5,704.5C 794.772,702.845 794.605,701.179 795,699.5C 796.333,697.833 797.667,696.167 799,694.5C 800.407,684.161 800.573,673.828 799.5,663.5 Z"/></g>
<g><path style="opacity:1" fill="#df6a0d" d="M 566.5,717.5 C 557.841,731.189 545.507,740.022 529.5,744C 503.242,750.245 480.742,743.745 462,724.5C 460.579,722.595 459.412,720.595 458.5,718.5C 462.647,721.151 466.647,723.984 470.5,727C 470.167,727.333 469.833,727.667 469.5,728C 471.279,730.893 473.612,732.06 476.5,731.5C 475.263,730.719 474.263,729.719 473.5,728.5C 473.833,728.167 474.167,727.833 474.5,727.5C 476.972,728.97 478.805,730.97 480,733.5C 480.414,733.043 480.914,732.709 481.5,732.5C 484.007,736.817 486.674,737.15 489.5,733.5C 491.39,734.612 493.39,735.446 495.5,736C 493.744,736.202 492.078,736.702 490.5,737.5C 495.454,739.733 500.621,741.066 506,741.5C 510.177,739.878 514.344,739.544 518.5,740.5C 518.491,738.692 518.991,737.025 520,735.5C 524.847,737.001 529.18,736.001 533,732.5C 534.716,733.552 535.716,732.886 536,730.5C 536.333,731.833 536.667,733.167 537,734.5C 537.354,732.193 538.354,731.859 540,733.5C 549.806,730.419 557.806,724.419 564,715.5C 564.417,716.756 565.25,717.423 566.5,717.5 Z"/></g>
<g><path style="opacity:1" fill="#c15518" d="M 238.5,725.5 C 241.093,726.754 243.427,728.42 245.5,730.5C 248.332,733.178 251.499,735.512 255,737.5C 255.561,736.978 256.228,736.645 257,736.5C 258.879,738.013 261.046,738.679 263.5,738.5C 263.281,739.675 263.614,740.675 264.5,741.5C 279.812,745.422 295.145,745.422 310.5,741.5C 290.285,749.284 270.618,747.784 251.5,737C 246.379,734.045 242.045,730.211 238.5,725.5 Z"/></g>
<g><path style="opacity:1" fill="#ac430c" d="M 541.5,763.5 C 524.854,762.408 508.187,762.241 491.5,763C 482.992,764.116 474.659,765.949 466.5,768.5C 465.893,768.376 465.56,768.043 465.5,767.5C 473.48,764.426 481.813,762.592 490.5,762C 506.167,761.333 521.833,761.333 537.5,762C 539.058,762.21 540.391,762.71 541.5,763.5 Z"/></g>
<g><path style="opacity:1" fill="#a94009" d="M 715.5,762.5 C 730.328,761.339 745.328,761.172 760.5,762C 768.469,763.077 776.136,764.91 783.5,767.5C 775.211,765.846 766.878,764.346 758.5,763C 744.171,762.5 729.837,762.333 715.5,762.5 Z"/></g>
<g><path style="opacity:1" fill="#b14611" d="M 356.5,778.5 C 324.134,762.377 290.134,757.877 254.5,765C 243.836,767.61 233.502,771.11 223.5,775.5C 236.108,768.217 249.775,763.717 264.5,762C 279.833,761.333 295.167,761.333 310.5,762C 327.174,764.155 342.508,769.655 356.5,778.5 Z"/></g>
<g><path style="opacity:1" fill="#ee730a" d="M 181.5,922.5 C 170.852,921.015 165.185,914.849 164.5,904C 165.454,888.291 165.454,872.458 164.5,856.5C 165.061,854.275 166.061,852.275 167.5,850.5C 166.647,847.189 166.814,843.856 168,840.5C 169.333,837.167 170.667,833.833 172,830.5C 173.506,828.826 175.339,827.826 177.5,827.5C 179.438,822.721 181.771,818.054 184.5,813.5C 188.641,809.862 191.808,805.528 194,800.5C 201.666,795.32 208.832,789.653 215.5,783.5C 218.116,782.52 220.449,781.02 222.5,779C 229.585,777.132 236.418,774.632 243,771.5C 243.333,771.833 243.667,772.167 244,772.5C 250.711,770.19 257.545,768.357 264.5,767C 279.167,766.333 293.833,766.333 308.5,767C 311.708,767.118 314.374,768.285 316.5,770.5C 317.086,770.291 317.586,769.957 318,769.5C 320.134,771.484 322.634,772.818 325.5,773.5C 326.192,772.975 326.692,772.308 327,771.5C 328.797,773.156 330.964,774.156 333.5,774.5C 334.386,775.325 334.719,776.325 334.5,777.5C 341.339,776.692 347.673,778.025 353.5,781.5C 353.167,782.167 352.833,782.833 352.5,783.5C 354.162,784.327 355.495,785.493 356.5,787C 361.883,785.986 365.716,788.152 368,793.5C 368.718,792.549 369.551,792.383 370.5,793C 371.716,794.594 373.049,796.094 374.5,797.5C 374.291,798.086 373.957,798.586 373.5,799C 377.064,800.226 379.73,802.559 381.5,806C 380.468,810.594 379.135,815.094 377.5,819.5C 376.167,820.167 374.833,820.833 373.5,821.5C 373.709,822.086 374.043,822.586 374.5,823C 372.834,825.48 372.001,828.313 372,831.5C 371.667,831.833 371.333,832.167 371,832.5C 370.751,831.376 370.251,830.376 369.5,829.5C 368.576,831.39 367.243,832.89 365.5,834C 366.849,835.635 366.682,837.135 365,838.5C 364.667,838.167 364.333,837.833 364,837.5C 363.713,839.891 363.213,842.224 362.5,844.5C 362.833,845.167 363.167,845.833 363.5,846.5C 362.312,846.307 360.978,846.807 359.5,848C 360.833,849 360.833,850 359.5,851C 360.449,851.617 361.282,851.451 362,850.5C 362.167,851.5 362.333,852.5 362.5,853.5C 361.169,856.336 360.169,859.003 359.5,861.5C 360.212,864.648 360.879,867.814 361.5,871C 360.295,885.147 360.295,899.313 361.5,913.5C 365.079,913.766 365.413,915.099 362.5,917.5C 363.09,918.799 364.09,919.632 365.5,920C 363.782,920.346 362.115,920.846 360.5,921.5C 351.97,920.847 343.47,920.18 335,919.5C 298.501,919.797 261.667,920.463 224.5,921.5C 212.97,920.843 201.47,920.177 190,919.5C 187.05,920.189 184.217,921.189 181.5,922.5 Z"/></g>
<g><path style="opacity:1" fill="#ee730a" d="M 400.5,922.5 C 397.994,921.25 395.327,920.584 392.5,920.5C 388.953,916.783 386.453,912.45 385,907.5C 384.333,893.833 384.333,880.167 385,866.5C 385.703,859.028 387.036,851.694 389,844.5C 391.079,840.007 393.412,835.674 396,831.5C 396.311,827.222 397.477,823.222 399.5,819.5C 400.885,818.386 402.385,817.386 404,816.5C 406.439,812.391 409.273,808.558 412.5,805C 417.227,801.068 422.227,797.401 427.5,794C 427.167,793.667 426.833,793.333 426.5,793C 428.217,791.441 430.217,790.608 432.5,790.5C 433.615,786.534 436.115,783.534 440,781.5C 440.333,781.833 440.667,782.167 441,782.5C 442.5,780.667 444,778.833 445.5,777C 449.662,776.474 453.662,775.474 457.5,774C 465.355,770.132 473.688,767.632 482.5,766.5C 503.165,766.059 523.831,766.559 544.5,768C 559.601,771.548 574.268,777.215 588.5,785C 595.678,790.371 601.845,796.204 607,802.5C 607.333,802.167 607.667,801.833 608,801.5C 608.791,803.604 610.291,804.937 612.5,805.5C 613.775,808.373 614.608,811.373 615,814.5C 616.825,815.103 618.659,815.77 620.5,816.5C 622.056,819.561 623.389,822.728 624.5,826C 624.265,826.873 623.931,827.707 623.5,828.5C 629.481,835.256 632.648,843.256 633,852.5C 634.824,853.749 634.657,854.915 632.5,856C 635.648,859.671 637.315,864.004 637.5,869C 636.891,877.722 636.224,886.389 635.5,895C 636.428,895.388 637.095,896.055 637.5,897C 636.167,900 636.167,903 637.5,906C 636.764,908.139 635.764,910.139 634.5,912C 634.833,912.333 635.167,912.667 635.5,913C 633.847,914.805 632.18,916.638 630.5,918.5C 629.226,916.15 627.893,916.317 626.5,919C 601.619,920.736 576.786,920.902 552,919.5C 501.46,919.856 450.96,920.856 400.5,922.5 Z"/></g>
<g><path style="opacity:1" fill="#ee730a" d="M 854.5,833.5 C 855.388,838.004 856.388,842.504 857.5,847C 856.99,849.706 856.323,852.373 855.5,855C 856.999,861.035 857.999,867.035 858.5,873C 857.869,874.906 857.536,876.906 857.5,879C 861.071,892.117 859.737,904.617 853.5,916.5C 849.657,917.853 845.657,918.687 841.5,919C 838.531,921.009 835.198,921.842 831.5,921.5C 774.174,920.695 716.841,920.195 659.5,920C 661.807,919.646 662.141,918.646 660.5,917C 662.068,913.328 663.068,909.495 663.5,905.5C 663.03,893.619 663.03,882.119 663.5,871C 662.029,863.927 660.862,856.76 660,849.5C 656.656,846.052 654.49,842.052 653.5,837.5C 650.372,827.256 646.706,817.256 642.5,807.5C 643.091,805.734 643.924,804.067 645,802.5C 648.897,797.871 653.063,794.371 657.5,792C 658.833,790.333 660.167,788.667 661.5,787C 662.449,786.383 663.282,786.549 664,787.5C 666.009,785.99 667.842,784.323 669.5,782.5C 671.432,783.52 673.432,783.687 675.5,783C 674.5,782.667 673.5,782.333 672.5,782C 674.833,780.333 677.167,778.667 679.5,777C 682.099,776.231 684.599,776.398 687,777.5C 691.861,772.894 697.528,770.56 704,770.5C 707.737,768.08 711.904,766.914 716.5,767C 735.5,766.333 754.5,766.333 773.5,767C 779.291,768.535 784.958,770.535 790.5,773C 791.833,774 791.833,775 790.5,776C 796.042,777.929 801.709,779.596 807.5,781C 808.167,782 808.833,783 809.5,784C 813.527,786.737 817.86,788.904 822.5,790.5C 822.343,791.873 822.51,793.207 823,794.5C 826.708,798.72 830.541,802.887 834.5,807C 835.9,808.438 837.567,809.271 839.5,809.5C 842.138,812.236 844.472,815.403 846.5,819C 845.978,819.561 845.645,820.228 845.5,821C 846.613,822.394 847.947,823.561 849.5,824.5C 848.329,829.171 849.162,833.504 852,837.5C 852.122,835.563 852.955,834.23 854.5,833.5 Z"/></g>
<g><path style="opacity:1" fill="#c15613" d="M 715.5,762.5 C 709.622,763.999 703.622,765.499 697.5,767C 698.5,767.333 699.5,767.667 700.5,768C 696.64,770.338 692.64,771.171 688.5,770.5C 684.474,771.851 680.474,773.185 676.5,774.5C 688.549,767.708 701.549,763.708 715.5,762.5 Z"/></g>
<g><path style="opacity:1" fill="#d9630a" d="M 541.5,763.5 C 585.039,770.385 615.372,794.052 632.5,834.5C 634.61,842.403 636.443,850.403 638,858.5C 638.464,857.906 638.631,857.239 638.5,856.5C 639.314,858.631 639.814,860.964 640,863.5C 640.667,878.5 640.667,893.5 640,908.5C 637.46,916.878 631.96,921.878 623.5,923.5C 548.998,923.833 474.665,923.499 400.5,922.5C 450.96,920.856 501.46,919.856 552,919.5C 576.786,920.902 601.619,920.736 626.5,919C 627.893,916.317 629.226,916.15 630.5,918.5C 632.18,916.638 633.847,914.805 635.5,913C 635.167,912.667 634.833,912.333 634.5,912C 635.764,910.139 636.764,908.139 637.5,906C 636.167,903 636.167,900 637.5,897C 637.095,896.055 636.428,895.388 635.5,895C 636.224,886.389 636.891,877.722 637.5,869C 637.315,864.004 635.648,859.671 632.5,856C 634.657,854.915 634.824,853.749 633,852.5C 632.648,843.256 629.481,835.256 623.5,828.5C 623.931,827.707 624.265,826.873 624.5,826C 623.389,822.728 622.056,819.561 620.5,816.5C 618.659,815.77 616.825,815.103 615,814.5C 614.608,811.373 613.775,808.373 612.5,805.5C 610.291,804.937 608.791,803.604 608,801.5C 607.667,801.833 607.333,802.167 607,802.5C 601.845,796.204 595.678,790.371 588.5,785C 574.268,777.215 559.601,771.548 544.5,768C 523.831,766.559 503.165,766.059 482.5,766.5C 473.688,767.632 465.355,770.132 457.5,774C 453.662,775.474 449.662,776.474 445.5,777C 444,778.833 442.5,780.667 441,782.5C 440.667,782.167 440.333,781.833 440,781.5C 436.115,783.534 433.615,786.534 432.5,790.5C 430.217,790.608 428.217,791.441 426.5,793C 426.833,793.333 427.167,793.667 427.5,794C 422.227,797.401 417.227,801.068 412.5,805C 409.273,808.558 406.439,812.391 404,816.5C 402.385,817.386 400.885,818.386 399.5,819.5C 414.736,793.599 436.736,776.266 465.5,767.5C 465.56,768.043 465.893,768.376 466.5,768.5C 474.659,765.949 482.992,764.116 491.5,763C 508.187,762.241 524.854,762.408 541.5,763.5 Z"/></g>
<g><path style="opacity:1" fill="#d66109" d="M 715.5,762.5 C 729.837,762.333 744.171,762.5 758.5,763C 766.878,764.346 775.211,765.846 783.5,767.5C 817.446,778.446 841.112,800.446 854.5,833.5C 852.955,834.23 852.122,835.563 852,837.5C 849.162,833.504 848.329,829.171 849.5,824.5C 847.947,823.561 846.613,822.394 845.5,821C 845.645,820.228 845.978,819.561 846.5,819C 844.472,815.403 842.138,812.236 839.5,809.5C 837.567,809.271 835.9,808.438 834.5,807C 830.541,802.887 826.708,798.72 823,794.5C 822.51,793.207 822.343,791.873 822.5,790.5C 817.86,788.904 813.527,786.737 809.5,784C 808.833,783 808.167,782 807.5,781C 801.709,779.596 796.042,777.929 790.5,776C 791.833,775 791.833,774 790.5,773C 784.958,770.535 779.291,768.535 773.5,767C 754.5,766.333 735.5,766.333 716.5,767C 711.904,766.914 707.737,768.08 704,770.5C 697.528,770.56 691.861,772.894 687,777.5C 684.599,776.398 682.099,776.231 679.5,777C 677.167,778.667 674.833,780.333 672.5,782C 673.5,782.333 674.5,782.667 675.5,783C 673.432,783.687 671.432,783.52 669.5,782.5C 667.842,784.323 666.009,785.99 664,787.5C 663.282,786.549 662.449,786.383 661.5,787C 660.167,788.667 658.833,790.333 657.5,792C 653.063,794.371 648.897,797.871 645,802.5C 643.924,804.067 643.091,805.734 642.5,807.5C 646.706,817.256 650.372,827.256 653.5,837.5C 649.439,826.711 644.272,816.378 638,806.5C 637.333,805.5 637.333,804.5 638,803.5C 648.747,790.901 661.58,781.234 676.5,774.5C 680.474,773.185 684.474,771.851 688.5,770.5C 692.64,771.171 696.64,770.338 700.5,768C 699.5,767.667 698.5,767.333 697.5,767C 703.622,765.499 709.622,763.999 715.5,762.5 Z"/></g>
<g><path style="opacity:1" fill="#ce5a0c" d="M 223.5,775.5 C 222.251,777.136 220.584,778.303 218.5,779C 217.833,781 216.5,782.333 214.5,783C 214.728,783.399 215.062,783.565 215.5,783.5C 208.832,789.653 201.666,795.32 194,800.5C 191.808,805.528 188.641,809.862 184.5,813.5C 181.771,818.054 179.438,822.721 177.5,827.5C 175.339,827.826 173.506,828.826 172,830.5C 170.667,833.833 169.333,837.167 168,840.5C 166.814,843.856 166.647,847.189 167.5,850.5C 166.061,852.275 165.061,854.275 164.5,856.5C 165.454,872.458 165.454,888.291 164.5,904C 165.185,914.849 170.852,921.015 181.5,922.5C 182.209,923.404 183.209,923.737 184.5,923.5C 246.5,924.167 308.5,924.833 370.5,925.5C 307.832,925.667 245.166,925.5 182.5,925C 171.855,923.021 165.022,916.854 162,906.5C 157.311,875.886 161.977,846.886 176,819.5C 187.555,800.108 203.389,785.441 223.5,775.5 Z"/></g>
<g><path style="opacity:1" fill="#e0690a" d="M 356.5,778.5 C 368.625,784.952 378.958,793.619 387.5,804.5C 376.402,820.576 369.402,838.242 366.5,857.5C 365.691,859.292 365.191,861.292 365,863.5C 364.333,879.833 364.333,896.167 365,912.5C 365.374,916.515 366.874,920.015 369.5,923C 307.834,923.5 246.168,923.667 184.5,923.5C 183.209,923.737 182.209,923.404 181.5,922.5C 184.217,921.189 187.05,920.189 190,919.5C 201.47,920.177 212.97,920.843 224.5,921.5C 261.667,920.463 298.501,919.797 335,919.5C 343.47,920.18 351.97,920.847 360.5,921.5C 362.115,920.846 363.782,920.346 365.5,920C 364.09,919.632 363.09,918.799 362.5,917.5C 365.413,915.099 365.079,913.766 361.5,913.5C 360.295,899.313 360.295,885.147 361.5,871C 360.879,867.814 360.212,864.648 359.5,861.5C 360.169,859.003 361.169,856.336 362.5,853.5C 362.333,852.5 362.167,851.5 362,850.5C 361.282,851.451 360.449,851.617 359.5,851C 360.833,850 360.833,849 359.5,848C 360.978,846.807 362.312,846.307 363.5,846.5C 363.167,845.833 362.833,845.167 362.5,844.5C 363.213,842.224 363.713,839.891 364,837.5C 364.333,837.833 364.667,838.167 365,838.5C 366.682,837.135 366.849,835.635 365.5,834C 367.243,832.89 368.576,831.39 369.5,829.5C 370.251,830.376 370.751,831.376 371,832.5C 371.333,832.167 371.667,831.833 372,831.5C 372.001,828.313 372.834,825.48 374.5,823C 374.043,822.586 373.709,822.086 373.5,821.5C 374.833,820.833 376.167,820.167 377.5,819.5C 379.135,815.094 380.468,810.594 381.5,806C 379.73,802.559 377.064,800.226 373.5,799C 373.957,798.586 374.291,798.086 374.5,797.5C 373.049,796.094 371.716,794.594 370.5,793C 369.551,792.383 368.718,792.549 368,793.5C 365.716,788.152 361.883,785.986 356.5,787C 355.495,785.493 354.162,784.327 352.5,783.5C 352.833,782.833 353.167,782.167 353.5,781.5C 347.673,778.025 341.339,776.692 334.5,777.5C 334.719,776.325 334.386,775.325 333.5,774.5C 330.964,774.156 328.797,773.156 327,771.5C 326.692,772.308 326.192,772.975 325.5,773.5C 322.634,772.818 320.134,771.484 318,769.5C 317.586,769.957 317.086,770.291 316.5,770.5C 314.374,768.285 311.708,767.118 308.5,767C 293.833,766.333 279.167,766.333 264.5,767C 257.545,768.357 250.711,770.19 244,772.5C 243.667,772.167 243.333,771.833 243,771.5C 236.418,774.632 229.585,777.132 222.5,779C 220.449,781.02 218.116,782.52 215.5,783.5C 215.062,783.565 214.728,783.399 214.5,783C 216.5,782.333 217.833,781 218.5,779C 220.584,778.303 222.251,777.136 223.5,775.5C 233.502,771.11 243.836,767.61 254.5,765C 290.134,757.877 324.134,762.377 356.5,778.5 Z"/></g>
<g><path style="opacity:1" fill="#b95922" d="M 632.5,834.5 C 636.296,841.239 638.296,848.572 638.5,856.5C 638.631,857.239 638.464,857.906 638,858.5C 636.443,850.403 634.61,842.403 632.5,834.5 Z"/></g>
<g><path style="opacity:1" fill="#bc571e" d="M 859.5,848.5 C 862.34,866.713 863.173,885.046 862,903.5C 861.626,905.491 860.793,907.158 859.5,908.5C 860.709,888.296 860.709,868.296 859.5,848.5 Z"/></g>
<g><path style="opacity:1" fill="#c3490c" d="M 399.5,819.5 C 397.477,823.222 396.311,827.222 396,831.5C 393.412,835.674 391.079,840.007 389,844.5C 387.036,851.694 385.703,859.028 385,866.5C 384.333,880.167 384.333,893.833 385,907.5C 386.453,912.45 388.953,916.783 392.5,920.5C 388.258,918.061 385.425,914.395 384,909.5C 383.333,893.167 383.333,876.833 384,860.5C 386.142,845.56 391.308,831.893 399.5,819.5 Z"/></g>
<g><path style="opacity:1" fill="#e16c12" d="M 854.5,833.5 C 856.923,838.168 858.59,843.168 859.5,848.5C 860.709,868.296 860.709,888.296 859.5,908.5C 857.731,913.948 854.397,918.281 849.5,921.5C 849.44,920.957 849.107,920.624 848.5,920.5C 846.333,921.792 844,922.625 841.5,923C 779.497,923.833 717.497,923.667 655.5,922.5C 656.958,918.585 658.124,914.585 659,910.5C 659.667,895.167 659.667,879.833 659,864.5C 658.831,879.672 658.331,894.672 657.5,909.5C 657.667,891.83 657.5,874.164 657,856.5C 655.831,850.152 654.664,843.819 653.5,837.5C 654.49,842.052 656.656,846.052 660,849.5C 660.862,856.76 662.029,863.927 663.5,871C 663.03,882.119 663.03,893.619 663.5,905.5C 663.068,909.495 662.068,913.328 660.5,917C 662.141,918.646 661.807,919.646 659.5,920C 716.841,920.195 774.174,920.695 831.5,921.5C 835.198,921.842 838.531,921.009 841.5,919C 845.657,918.687 849.657,917.853 853.5,916.5C 859.737,904.617 861.071,892.117 857.5,879C 857.536,876.906 857.869,874.906 858.5,873C 857.999,867.035 856.999,861.035 855.5,855C 856.323,852.373 856.99,849.706 857.5,847C 856.388,842.504 855.388,838.004 854.5,833.5 Z"/></g>
<g><path style="opacity:1" fill="#bf4601" d="M 366.5,857.5 C 365.435,875.151 365.269,892.818 366,910.5C 366.996,915.492 368.829,920.159 371.5,924.5C 371.376,925.107 371.043,925.44 370.5,925.5C 308.5,924.833 246.5,924.167 184.5,923.5C 246.168,923.667 307.834,923.5 369.5,923C 366.874,920.015 365.374,916.515 365,912.5C 364.333,896.167 364.333,879.833 365,863.5C 365.191,861.292 365.691,859.292 366.5,857.5 Z"/></g>
<g><path style="opacity:1" fill="#c8530c" d="M 392.5,920.5 C 395.327,920.584 397.994,921.25 400.5,922.5C 474.665,923.499 548.998,923.833 623.5,923.5C 622.737,924.268 621.737,924.768 620.5,925C 548.167,925.667 475.833,925.667 403.5,925C 399.381,924.356 395.715,922.856 392.5,920.5 Z"/></g>
<g><path style="opacity:1" fill="#c14e0a" d="M 849.5,921.5 C 846.372,923.154 843.039,924.321 839.5,925C 776.833,925.667 714.167,925.667 651.5,925C 654.589,920.229 656.589,915.062 657.5,909.5C 658.331,894.672 658.831,879.672 659,864.5C 659.667,879.833 659.667,895.167 659,910.5C 658.124,914.585 656.958,918.585 655.5,922.5C 717.497,923.667 779.497,923.833 841.5,923C 844,922.625 846.333,921.792 848.5,920.5C 849.107,920.624 849.44,920.957 849.5,921.5 Z"/></g>
</svg>
