<svg width="96" height="96" viewBox="0 0 96 96" fill="none" xmlns="http://www.w3.org/2000/svg">
<rect width="96" height="96" rx="48" fill="#EDEDED"/>
<path d="M29 48H35.7639C37.1343 48 38.3871 48.7743 39 50C39.6129 51.2257 40.8657 52 42.2361 52H53.7639C55.1343 52 56.3871 51.2257 57 50C57.6129 48.7743 58.8657 48 60.2361 48H67M41.9331 32H54.0669C56.2206 32 57.2975 32 58.2482 32.3279C59.089 32.6179 59.8547 33.0912 60.4901 33.7135C61.2086 34.4172 61.6902 35.3804 62.6534 37.3067L66.9865 45.973C67.3645 46.729 67.5535 47.107 67.6868 47.5031C67.8051 47.8549 67.8906 48.2169 67.9421 48.5845C68 48.9985 68 49.4211 68 50.2663V54.4C68 57.7603 68 59.4405 67.346 60.7239C66.7708 61.8529 65.8529 62.7708 64.7239 63.346C63.4405 64 61.7603 64 58.4 64H37.6C34.2397 64 32.5595 64 31.2761 63.346C30.1471 62.7708 29.2292 61.8529 28.654 60.7239C28 59.4405 28 57.7603 28 54.4V50.2663C28 49.4211 28 48.9985 28.0579 48.5845C28.1094 48.2169 28.1949 47.8549 28.3132 47.5031C28.4465 47.107 28.6355 46.729 29.0135 45.973L33.3466 37.3067C34.3098 35.3804 34.7914 34.4172 35.5099 33.7135C36.1453 33.0912 36.911 32.6179 37.7518 32.3279C38.7025 32 39.7794 32 41.9331 32Z" stroke="#B8B8B8" stroke-width="2" stroke-linecap="round" stroke-linejoin="round"/>
</svg>
