<?xml version="1.0" encoding="UTF-8"?>
<!DOCTYPE svg PUBLIC "-//W3C//DTD SVG 1.1//EN" "http://www.w3.org/Graphics/SVG/1.1/DTD/svg11.dtd">
<svg xmlns="http://www.w3.org/2000/svg" version="1.1" width="100px" height="100px" style="shape-rendering:geometricPrecision; text-rendering:geometricPrecision; image-rendering:optimizeQuality; fill-rule:evenodd; clip-rule:evenodd" xmlns:xlink="http://www.w3.org/1999/xlink" viewBox="0 0 1024 1024">
<g><path style="opacity:1" fill="#f76a01" d="M 644.5,125.5 C 644.062,125.435 643.728,125.601 643.5,126C 645.996,127.08 648.33,128.414 650.5,130C 685.416,165.083 720.416,199.916 755.5,234.5C 772.435,249.934 788.935,265.934 805,282.5C 806.122,284.407 806.955,286.407 807.5,288.5C 806.83,473.68 806.163,659.014 805.5,844.5C 805.52,845.726 805.853,846.726 806.5,847.5C 800.5,869.5 786.5,883.5 764.5,889.5C 598.033,889.659 431.366,889.492 264.5,889C 262.302,888.627 260.135,888.127 258,887.5C 257.235,887.57 256.735,887.903 256.5,888.5C 236.666,881.999 223.999,868.665 218.5,848.5C 219.139,847.903 219.472,847.07 219.5,846C 218.836,621.016 218.169,396.183 217.5,171.5C 223.481,145.686 239.481,130.186 265.5,125C 392.001,124.167 518.334,124.334 644.5,125.5 Z"/></g>
<g><path style="opacity:1" fill="#f53900" d="M 625.5,153.5 C 625.167,153.5 624.833,153.5 624.5,153.5C 504.833,153.333 385.166,153.5 265.5,154C 262.353,154.881 259.353,156.047 256.5,157.5C 255.262,157.19 255.262,156.69 256.5,156C 258.833,155 261.167,154 263.5,153C 384.334,152.167 505.001,152.334 625.5,153.5 Z"/></g>
<g><path style="opacity:1" fill="#fefefe" d="M 624.5,153.5 C 624.206,189.517 624.539,225.517 625.5,261.5C 631.69,288.781 648.69,304.448 676.5,308.5C 711.167,308.5 745.833,308.5 780.5,308.5C 780.5,485.833 780.5,663.167 780.5,840.5C 777.23,852.934 769.23,860.434 756.5,863C 593.5,863.667 430.5,863.667 267.5,863C 254.854,860.022 247.354,852.188 245,839.5C 244.333,618.167 244.333,396.833 245,175.5C 246.655,168.03 250.489,162.03 256.5,157.5C 259.353,156.047 262.353,154.881 265.5,154C 385.166,153.5 504.833,153.333 624.5,153.5 Z"/></g>
<g><path style="opacity:1" fill="#f75c15" d="M 644.5,125.5 C 647.09,126.128 649.423,127.295 651.5,129C 686.73,163.73 721.397,198.896 755.5,234.5C 720.416,199.916 685.416,165.083 650.5,130C 648.33,128.414 645.996,127.08 643.5,126C 643.728,125.601 644.062,125.435 644.5,125.5 Z"/></g>
<g><path style="opacity:1" fill="#fefefd" d="M 762.5,280.5 C 732.498,280.667 702.498,280.5 672.5,280C 660.941,276.278 654.274,268.444 652.5,256.5C 652.333,227.165 652.5,197.831 653,168.5C 690.285,205.726 726.785,243.059 762.5,280.5 Z"/></g>
<g><path style="opacity:1" fill="#f96a26" d="M 624.5,153.5 C 624.833,153.5 625.167,153.5 625.5,153.5C 626.833,189.5 626.833,225.5 625.5,261.5C 624.539,225.517 624.206,189.517 624.5,153.5 Z"/></g>
<g><path style="opacity:1" fill="#f76a01" d="M 517.5,279.5 C 517.565,279.062 517.399,278.728 517,278.5C 514.97,280.737 512.47,282.237 509.5,283C 443.999,283.167 378.665,283.667 313.5,284.5C 301.252,279.927 298.419,271.927 305,260.5C 306.935,258.898 309.101,257.731 311.5,257C 377.833,256.333 444.167,256.333 510.5,257C 519.95,260.401 523.117,266.901 520,276.5C 519.623,277.942 518.79,278.942 517.5,279.5 Z"/></g>
<g><path style="opacity:1" fill="#f64b03" d="M 652.5,256.5 C 654.274,268.444 660.941,276.278 672.5,280C 702.498,280.5 732.498,280.667 762.5,280.5C 732.336,281.664 702.003,281.831 671.5,281C 659.013,277.075 652.68,268.908 652.5,256.5 Z"/></g>
<g><path style="opacity:1" fill="#f53e00" d="M 517.5,279.5 C 515.88,281.984 513.547,283.484 510.5,284C 444.834,284.5 379.168,284.667 313.5,284.5C 378.665,283.667 443.999,283.167 509.5,283C 512.47,282.237 514.97,280.737 517,278.5C 517.399,278.728 517.565,279.062 517.5,279.5 Z"/></g>
<g><path style="opacity:1" fill="#f6600c" d="M 594.5,342.5 C 593.078,342.291 591.745,341.791 590.5,341C 497.167,340.333 403.833,340.333 310.5,341C 308.922,342.094 307.255,342.928 305.5,343.5C 306.894,341.292 308.894,339.792 311.5,339C 403.833,338.333 496.167,338.333 588.5,339C 591.025,339.424 593.025,340.59 594.5,342.5 Z"/></g>
<g><path style="opacity:1" fill="#f76b01" d="M 594.5,342.5 C 598.273,344.713 599.94,348.046 599.5,352.5C 599.607,357.619 597.607,361.619 593.5,364.5C 593.44,363.957 593.107,363.624 592.5,363.5C 591.205,364.098 589.872,364.598 588.5,365C 496.332,365.167 404.332,365.667 312.5,366.5C 303.793,363.61 300.293,357.61 302,348.5C 302.223,346.119 303.39,344.453 305.5,343.5C 307.255,342.928 308.922,342.094 310.5,341C 403.833,340.333 497.167,340.333 590.5,341C 591.745,341.791 593.078,342.291 594.5,342.5 Z"/></g>
<g><path style="opacity:1" fill="#f23b00" d="M 593.5,364.5 C 592.234,365.09 590.901,365.59 589.5,366C 497.167,366.5 404.834,366.667 312.5,366.5C 404.332,365.667 496.332,365.167 588.5,365C 589.872,364.598 591.205,364.098 592.5,363.5C 593.107,363.624 593.44,363.957 593.5,364.5 Z"/></g>
<g><path style="opacity:1" fill="#f76a02" d="M 679.5,533.5 C 658.998,517.242 636.331,504.575 611.5,495.5C 610.893,495.624 610.56,495.957 610.5,496.5C 529.624,468.613 451.29,474.447 375.5,514C 354.127,526.699 334.46,541.699 316.5,559C 307.4,564.367 299.233,563.2 292,555.5C 288.019,549.31 287.686,542.977 291,536.5C 372.847,459.234 469.347,431.401 580.5,453C 639.285,466.301 690.118,493.801 733,535.5C 739.119,550.52 734.285,559.52 718.5,562.5C 714.886,562.196 711.552,561.029 708.5,559C 698.761,550.483 689.094,541.983 679.5,533.5 Z"/></g>
<g><path style="opacity:1" fill="#f6580f" d="M 610.5,496.5 C 610.56,495.957 610.893,495.624 611.5,495.5C 636.331,504.575 658.998,517.242 679.5,533.5C 658.182,518.337 635.182,506.003 610.5,496.5 Z"/></g>
<g><path style="opacity:1" fill="#f76a02" d="M 493.5,525.5 C 559.621,522.372 617.621,542.205 667.5,585C 675.812,592.075 677.646,600.575 673,610.5C 667.996,617.023 661.496,619.19 653.5,617C 642.167,608.333 630.833,599.667 619.5,591C 562.383,556.503 502.383,550.503 439.5,573C 415.844,582.669 394.844,596.336 376.5,614C 365.871,620.136 357.038,618.303 350,608.5C 346.724,599.682 348.557,592.182 355.5,586C 394.937,551.015 440.937,530.849 493.5,525.5 Z"/></g>
<g><path style="opacity:1" fill="#f75e02" d="M 217.5,171.5 C 218.169,396.183 218.836,621.016 219.5,846C 219.472,847.07 219.139,847.903 218.5,848.5C 217.839,845.213 217.339,841.88 217,838.5C 216.169,616.127 216.335,393.794 217.5,171.5 Z"/></g>
<g><path style="opacity:1" fill="#f76a02" d="M 492.5,606.5 C 537.125,602.1 576.458,614.267 610.5,643C 619.201,653.717 618.201,663.384 607.5,672C 601.355,674.185 595.355,673.852 589.5,671C 558.98,643.623 523.647,634.623 483.5,644C 464.73,649.715 448.063,659.048 433.5,672C 416.182,676.011 408.015,669.178 409,651.5C 410.302,647.726 412.469,644.559 415.5,642C 432.798,628.015 452.131,617.682 473.5,611C 479.95,609.415 486.283,607.915 492.5,606.5 Z"/></g>
<g><path style="opacity:1" fill="#f74400" d="M 676.5,308.5 C 711.329,307.502 746.329,307.168 781.5,307.5C 781.833,485.903 781.5,663.57 780.5,840.5C 780.5,663.167 780.5,485.833 780.5,308.5C 745.833,308.5 711.167,308.5 676.5,308.5 Z"/></g>
<g><path style="opacity:1" fill="#f76a01" d="M 541.5,769.5 C 541.44,768.957 541.107,768.624 540.5,768.5C 521.399,780.661 502.399,780.494 483.5,768C 476.666,761.574 471.333,754.741 467.5,747.5C 459.466,718.792 468.799,697.625 495.5,684C 523.446,676.752 543.946,685.919 557,711.5C 564.906,734.46 559.739,753.793 541.5,769.5 Z"/></g>
<g><path style="opacity:1" fill="#f96828" d="M 807.5,288.5 C 808.665,472.097 808.832,655.764 808,839.5C 807.433,842.168 806.933,844.834 806.5,847.5C 805.853,846.726 805.52,845.726 805.5,844.5C 806.163,659.014 806.83,473.68 807.5,288.5 Z"/></g>
<g><path style="opacity:1" fill="#f55612" d="M 541.5,769.5 C 516.621,784.827 494.121,781.827 474,760.5C 471.295,756.423 469.128,752.09 467.5,747.5C 471.333,754.741 476.666,761.574 483.5,768C 502.399,780.494 521.399,780.661 540.5,768.5C 541.107,768.624 541.44,768.957 541.5,769.5 Z"/></g>
<g><path style="opacity:1" fill="#f53900" d="M 256.5,888.5 C 256.735,887.903 257.235,887.57 258,887.5C 260.135,888.127 262.302,888.627 264.5,889C 431.366,889.492 598.033,889.659 764.5,889.5C 597.194,890.663 429.861,890.829 262.5,890C 260.482,889.495 258.482,888.995 256.5,888.5 Z"/></g>
</svg>
