<?xml version="1.0" encoding="UTF-8"?>
<!DOCTYPE svg PUBLIC "-//W3C//DTD SVG 1.1//EN" "http://www.w3.org/Graphics/SVG/1.1/DTD/svg11.dtd">
<svg xmlns="http://www.w3.org/2000/svg" version="1.1" width="120px" height="120px" style="shape-rendering:geometricPrecision; text-rendering:geometricPrecision; image-rendering:optimizeQuality; fill-rule:evenodd; clip-rule:evenodd" xmlns:xlink="http://www.w3.org/1999/xlink" viewBox="0 0 1024 1024">
<g><path style="opacity:1" fill="#ee7220" d="M 679.5,165.5 C 564.167,166.833 448.833,166.833 333.5,165.5C 448.821,164.169 564.154,164.169 679.5,165.5 Z"/></g>
<g><path style="opacity:1" fill="#ea4f00" d="M 856.5,410.5 C 857.491,483.804 857.824,557.138 857.5,630.5C 856.826,558.15 856.159,485.65 855.5,413C 855.528,411.93 855.861,411.097 856.5,410.5 Z"/></g>
<g><path style="opacity:1" fill="#fefefd" d="M 690.5,589.5 C 690.667,653.168 690.5,716.834 690,780.5C 689.105,783.951 687.938,787.284 686.5,790.5C 681.79,795.523 676.123,799.023 669.5,801C 563.501,801.5 457.501,801.667 351.5,801.5C 338.737,801.627 329.737,795.961 324.5,784.5C 324.672,783.508 324.338,782.842 323.5,782.5C 322.511,718.196 322.177,653.863 322.5,589.5C 445.167,588.167 567.833,588.167 690.5,589.5 Z"/></g>
<g><path style="opacity:1" fill="#ec6608" d="M 202.5,676.5 C 238.998,675.336 275.664,675.169 312.5,676C 313.33,710.762 313.83,745.595 314,780.5C 314.333,779.5 314.667,778.5 315,777.5C 315.333,777.833 315.667,778.167 316,778.5C 315.621,780.075 315.788,781.575 316.5,783C 315.572,783.388 314.905,784.055 314.5,785C 315,786.5 315.5,788 316,789.5C 316.667,790.833 317.333,790.833 318,789.5C 318.419,790.672 319.085,791.672 320,792.5C 320.667,791.167 321.333,789.833 322,788.5C 322.837,790.007 324.004,790.507 325.5,790C 323.709,788.21 323.375,786.377 324.5,784.5C 329.737,795.961 338.737,801.627 351.5,801.5C 456.333,802.333 561.333,802.833 666.5,803C 558.446,803.66 450.446,803.66 342.5,803C 345.126,805.146 348.126,806.479 351.5,807C 349.913,807.862 348.246,808.529 346.5,809C 346.957,809.414 347.291,809.914 347.5,810.5C 454.333,811.167 560.999,811.833 667.5,812.5C 558.833,812.667 450.166,812.5 341.5,812C 325.442,807.277 315.609,796.777 312,780.5C 311.5,745.835 311.333,711.168 311.5,676.5C 275.167,676.5 238.833,676.5 202.5,676.5 Z"/></g>
<g><path style="opacity:1" fill="#ed7617" d="M 333.5,165.5 C 448.833,166.833 564.167,166.833 679.5,165.5C 690.512,169.013 697.679,176.346 701,187.5C 701.5,209.164 701.667,230.831 701.5,252.5C 717.503,252.333 733.503,252.5 749.5,253C 758.263,255.43 764.096,260.93 767,269.5C 767.5,303.165 767.667,336.832 767.5,370.5C 781.504,370.333 795.504,370.5 809.5,371C 833.909,373.858 849.576,387.025 856.5,410.5C 855.861,411.097 855.528,411.93 855.5,413C 856.159,485.65 856.826,558.15 857.5,630.5C 854.296,656.204 839.962,671.371 814.5,676C 776.835,676.5 739.168,676.667 701.5,676.5C 701.667,711.835 701.5,747.168 701,782.5C 696.595,800.073 685.428,810.073 667.5,812.5C 560.999,811.833 454.333,811.167 347.5,810.5C 347.291,809.914 346.957,809.414 346.5,809C 348.246,808.529 349.913,807.862 351.5,807C 348.126,806.479 345.126,805.146 342.5,803C 450.446,803.66 558.446,803.66 666.5,803C 561.333,802.833 456.333,802.333 351.5,801.5C 457.501,801.667 563.501,801.5 669.5,801C 676.123,799.023 681.79,795.523 686.5,790.5C 688.746,788.351 690.246,785.684 691,782.5C 691.832,717.999 691.665,653.665 690.5,589.5C 567.833,588.167 445.167,588.167 322.5,589.5C 321.335,653.332 321.168,717.332 322,781.5C 322.333,782.167 322.667,782.833 323,783.5C 323.399,783.272 323.565,782.938 323.5,782.5C 324.338,782.842 324.672,783.508 324.5,784.5C 323.375,786.377 323.709,788.21 325.5,790C 324.004,790.507 322.837,790.007 322,788.5C 321.333,789.833 320.667,791.167 320,792.5C 319.085,791.672 318.419,790.672 318,789.5C 317.333,790.833 316.667,790.833 316,789.5C 315.5,788 315,786.5 314.5,785C 314.905,784.055 315.572,783.388 316.5,783C 315.788,781.575 315.621,780.075 316,778.5C 315.667,778.167 315.333,777.833 315,777.5C 314.667,778.5 314.333,779.5 314,780.5C 313.83,745.595 313.33,710.762 312.5,676C 275.664,675.169 238.998,675.336 202.5,676.5C 177.005,672.505 161.838,657.838 157,632.5C 156.333,559.5 156.333,486.5 157,413.5C 162.927,388.908 178.427,374.741 203.5,371C 217.496,370.5 231.496,370.333 245.5,370.5C 245.333,337.498 245.5,304.498 246,271.5C 248.833,262 255,255.833 264.5,253C 280.163,252.5 295.83,252.333 311.5,252.5C 311.333,230.831 311.5,209.164 312,187.5C 315.321,176.346 322.488,169.013 333.5,165.5 Z"/></g>
<g><path style="opacity:1" fill="#ee6a16" d="M 638.5,694.5 C 551.304,693.17 464.137,693.17 377,694.5C 376.175,696.701 376.675,698.534 378.5,700C 464.001,700.167 549.334,700.667 634.5,701.5C 548.833,701.667 463.166,701.5 377.5,701C 373.5,698 373.5,695 377.5,692C 463.5,691.333 549.5,691.333 635.5,692C 636.942,692.377 637.942,693.21 638.5,694.5 Z"/></g>
<g><path style="opacity:1" fill="#ee7716" d="M 638.5,694.5 C 639.848,698.188 638.515,700.522 634.5,701.5C 549.334,700.667 464.001,700.167 378.5,700C 376.675,698.534 376.175,696.701 377,694.5C 464.137,693.17 551.304,693.17 638.5,694.5 Z"/></g>
<g><path style="opacity:1" fill="#eb5700" d="M 322.5,589.5 C 322.177,653.863 322.511,718.196 323.5,782.5C 323.565,782.938 323.399,783.272 323,783.5C 322.667,782.833 322.333,782.167 322,781.5C 321.168,717.332 321.335,653.332 322.5,589.5 Z"/></g>
<g><path style="opacity:1" fill="#ec5b01" d="M 690.5,589.5 C 691.665,653.665 691.832,717.999 691,782.5C 690.246,785.684 688.746,788.351 686.5,790.5C 687.938,787.284 689.105,783.951 690,780.5C 690.5,716.834 690.667,653.168 690.5,589.5 Z"/></g>
<g><path style="opacity:1" fill="#fc962b" d="M 197.5,381.5 C 403.5,381.333 609.5,381.5 815.5,382C 832.244,385.745 842.744,395.911 847,412.5C 847.667,486.167 847.667,559.833 847,633.5C 843.409,652.091 832.242,662.924 813.5,666C 776.168,666.5 738.835,666.667 701.5,666.5C 701.5,640.5 701.5,614.5 701.5,588.5C 712.838,588.667 724.172,588.5 735.5,588C 740.233,585.078 740.566,581.745 736.5,578C 583.167,577.333 429.833,577.333 276.5,578C 272.928,580.626 272.595,583.626 275.5,587C 287.495,587.5 299.495,587.667 311.5,587.5C 311.5,613.5 311.5,639.5 311.5,665.5C 272.832,665.667 234.165,665.5 195.5,665C 180.49,659.99 170.99,649.823 167,634.5C 166.333,560.5 166.333,486.5 167,412.5C 171.514,396.514 181.68,386.18 197.5,381.5 Z"/></g>
<g><path style="opacity:1" fill="#ed7212" d="M 376.5,640.5 C 463.167,640.333 549.834,640.5 636.5,641C 640.02,643.237 640.353,645.904 637.5,649C 550.5,649.667 463.5,649.667 376.5,649C 373.939,646.177 373.939,643.343 376.5,640.5 Z"/></g>
<g><path style="opacity:1" fill="#ed7716" d="M 781.5,422.5 C 804.711,421.203 814.211,431.869 810,454.5C 803.956,465.182 794.789,469.682 782.5,468C 766.805,462.444 761.305,451.61 766,435.5C 769.266,428.721 774.433,424.388 781.5,422.5 Z"/></g>
<g><path style="opacity:1" fill="#ed7616" d="M 696.5,422.5 C 711.367,420.012 721.534,425.678 727,439.5C 728.381,459.12 719.215,468.62 699.5,468C 685.669,464.509 679.169,455.676 680,441.5C 682.178,432.163 687.678,425.83 696.5,422.5 Z"/></g>
<g><path style="opacity:1" fill="#fefcfa" d="M 785.5,430.5 C 796.694,430.858 802.194,436.524 802,447.5C 798.886,457.142 792.386,460.642 782.5,458C 772.699,452.037 771.032,444.371 777.5,435C 780.099,433.205 782.766,431.705 785.5,430.5 Z"/></g>
<g><path style="opacity:1" fill="#fefdfb" d="M 698.5,431.5 C 714.974,430.792 720.474,438.126 715,453.5C 708.803,459.104 701.969,459.937 694.5,456C 688.923,450.146 688.09,443.646 692,436.5C 693.965,434.45 696.132,432.783 698.5,431.5 Z"/></g>
<g><path style="opacity:1" fill="#eb5800" d="M 324.5,184.5 C 324.108,186.179 323.608,187.846 323,189.5C 322.5,249.832 322.333,310.166 322.5,370.5C 321.336,310.57 321.169,249.904 322,188.5C 322.29,186.081 323.124,184.747 324.5,184.5 Z"/></g>
<g><path style="opacity:1" fill="#fc962c" d="M 701.5,263.5 C 716.504,263.333 731.504,263.5 746.5,264C 749.726,265.198 752.559,267.031 755,269.5C 756.486,303.08 756.986,336.746 756.5,370.5C 738.167,370.5 719.833,370.5 701.5,370.5C 701.5,334.833 701.5,299.167 701.5,263.5 Z"/></g>
<g><path style="opacity:1" fill="#fc962c" d="M 266.5,263.5 C 281.5,263.5 296.5,263.5 311.5,263.5C 311.5,299.167 311.5,334.833 311.5,370.5C 293.167,370.5 274.833,370.5 256.5,370.5C 256.333,338.165 256.5,305.832 257,273.5C 259.022,268.98 262.189,265.647 266.5,263.5 Z"/></g>
<g><path style="opacity:1" fill="#fefefe" d="M 322.5,370.5 C 322.333,310.166 322.5,249.832 323,189.5C 323.608,187.846 324.108,186.179 324.5,184.5C 326.866,180.806 330.199,178.306 334.5,177C 450.247,176.004 565.914,176.337 681.5,178C 685.788,180.292 688.622,183.792 690,188.5C 690.5,249.166 690.667,309.832 690.5,370.5C 567.833,370.5 445.167,370.5 322.5,370.5 Z"/></g>
<g><path style="opacity:1" fill="#e95e00" d="M 637.5,745.5 C 551.207,744.339 464.874,744.172 378.5,745C 377.047,746.649 376.047,748.482 375.5,750.5C 374.249,748.275 374.582,746.109 376.5,744C 463.167,743.333 549.833,743.333 636.5,744C 637.056,744.383 637.389,744.883 637.5,745.5 Z"/></g>
<g><path style="opacity:1" fill="#ef7a22" d="M 637.5,745.5 C 640.096,748.557 639.43,751.057 635.5,753C 549.5,753.667 463.5,753.667 377.5,753C 376.619,752.292 375.953,751.458 375.5,750.5C 376.047,748.482 377.047,746.649 378.5,745C 464.874,744.172 551.207,744.339 637.5,745.5 Z"/></g>
</svg>
