<?xml version="1.0" standalone="no"?>
<!DOCTYPE svg PUBLIC "-//W3C//DTD SVG 20010904//EN"
 "http://www.w3.org/TR/2001/REC-SVG-20010904/DTD/svg10.dtd">
<svg version="1.0" xmlns="http://www.w3.org/2000/svg"
 width="100" height="100"  viewBox="0 0 1024 1024"
 preserveAspectRatio="xMidYMid meet">

<g transform="translate(0.000000,1024.000000) scale(0.100000,-0.100000)" fill="#f16c28" stroke="none">
<path d="M2373 9364 c-23 -8 -62 -33 -87 -55 -69 -61 -92 -119 -119 -297 l-23
-154 -118 -56 -118 -56 -32 18 c-82 49 -206 114 -244 129 -58 23 -139 21 -209
-4 -52 -19 -76 -39 -241 -208 -215 -219 -245 -266 -245 -380 0 -81 20 -130
113 -277 35 -55 63 -103 63 -109 0 -5 -17 -56 -38 -113 l-38 -102 -66 -20
c-36 -10 -98 -28 -137 -39 -85 -25 -152 -68 -188 -120 -50 -72 -56 -112 -56
-391 0 -283 6 -324 60 -398 44 -61 109 -93 268 -131 l140 -34 46 -116 c25 -64
46 -119 46 -123 0 -3 -19 -37 -42 -74 -78 -129 -101 -189 -101 -264 0 -118 25
-156 241 -371 203 -202 239 -227 340 -236 75 -7 151 15 217 62 l50 35 5 -922
c6 -1023 1 -952 72 -1093 44 -86 164 -203 251 -244 123 -59 147 -61 745 -61
l542 0 0 -609 c0 -367 4 -629 10 -661 22 -115 85 -215 173 -273 113 -75 -36
-69 1784 -69 1247 0 1644 3 1682 12 114 27 228 134 274 256 22 58 22 66 25
702 l3 642 537 0 c433 0 550 3 607 15 202 42 362 187 437 395 l23 65 3 1187
c3 1309 5 1263 -60 1396 -42 87 -159 207 -243 249 -108 55 -119 56 -460 62
l-320 6 -2 533 c-2 498 -3 535 -21 575 -25 57 -75 112 -131 145 l-46 27 -297
3 -297 3 -3 262 -3 262 -30 54 c-34 61 -90 114 -155 145 l-45 21 -1265 3
-1264 2 -151 149 c-129 127 -158 151 -208 169 -72 27 -150 28 -219 2 -44 -16
-169 -83 -247 -132 -16 -10 -38 -3 -135 42 -64 30 -118 61 -121 70 -2 8 -13
78 -25 155 -29 200 -66 265 -183 327 -41 22 -51 23 -362 25 -264 2 -327 -1
-362 -13z m664 -182 c40 -28 58 -78 78 -217 31 -212 46 -239 156 -279 35 -13
102 -42 148 -65 96 -46 146 -52 201 -23 19 10 79 42 132 71 53 28 111 56 128
61 65 19 86 6 257 -163 89 -88 174 -177 189 -199 43 -61 33 -93 -81 -257 -55
-82 -99 -155 -102 -174 -3 -22 3 -52 20 -92 14 -33 37 -99 51 -147 31 -99 66
-139 138 -158 251 -65 286 -80 312 -135 15 -30 17 -69 14 -284 -3 -236 -4
-251 -24 -278 -33 -44 -71 -60 -215 -93 -144 -33 -174 -48 -201 -101 -39 -75
-118 -294 -118 -325 0 -20 17 -65 42 -111 113 -211 112 -210 100 -251 -9 -28
-54 -80 -189 -214 -111 -110 -188 -179 -206 -183 -49 -13 -91 4 -225 91 -73
47 -148 88 -166 91 -26 4 -53 -5 -126 -41 -51 -25 -99 -46 -107 -46 -7 0 -32
-9 -53 -20 -50 -26 -71 -67 -98 -191 -27 -125 -44 -164 -84 -189 -31 -19 -46
-20 -295 -18 l-261 3 -27 25 c-35 33 -42 53 -60 173 -25 162 -44 187 -180 228
-38 11 -93 34 -121 50 -89 50 -104 46 -314 -98 -98 -68 -135 -77 -188 -49 -32
17 -355 342 -371 373 -22 43 -11 78 61 208 83 148 91 191 51 275 -12 25 -37
87 -57 139 -49 132 -63 144 -205 176 -193 44 -217 52 -245 86 l-26 31 0 263 0
264 30 35 c32 35 44 41 242 100 135 41 138 45 218 270 29 83 40 129 37 152 -3
17 -45 94 -94 170 -81 128 -88 143 -88 190 l0 50 165 173 c90 94 176 179 189
188 51 33 99 22 238 -54 193 -106 196 -107 338 -36 44 22 104 48 133 58 65 21
107 55 121 98 6 18 20 93 32 167 24 155 41 203 78 229 39 28 52 29 336 27 253
-1 261 -2 292 -24z m3853 -804 c24 -13 53 -36 64 -51 21 -28 21 -38 24 -913
l2 -884 -1300 0 c-806 0 -1300 4 -1300 9 0 16 21 24 150 57 148 37 193 58 244
114 74 82 76 89 76 416 0 312 -2 328 -52 401 -40 59 -97 89 -256 134 -75 22
-138 43 -140 47 -1 4 -20 52 -40 106 l-38 99 74 109 c40 60 85 134 99 165 23
49 25 64 20 134 l-5 79 1167 0 1167 0 44 -22z m820 -743 c61 -31 60 -24 60
-590 l0 -515 -310 0 -310 0 0 560 0 560 265 0 c218 0 271 -3 295 -15z m912
-1312 c83 -39 154 -108 194 -188 l29 -60 0 -1220 0 -1220 -32 -67 c-40 -85
-106 -151 -191 -191 l-67 -32 -567 -3 -568 -2 0 342 0 343 105 -2 c132 -2 201
8 220 33 22 29 19 84 -7 111 l-21 23 -2269 0 c-2245 0 -2268 0 -2288 -20 -11
-11 -22 -30 -26 -44 -7 -29 19 -82 43 -90 10 -3 80 -6 155 -8 l138 -3 0 -343
0 -343 -572 3 -573 3 -57 27 c-101 47 -178 135 -216 246 -14 41 -17 157 -22
995 -3 521 -5 947 -4 947 1 0 36 -16 77 -35 84 -39 79 -30 97 -159 18 -137 71
-219 175 -274 l50 -27 300 0 300 0 51 27 c54 28 112 87 139 139 9 17 27 81 40
141 13 60 25 111 27 113 1 2 42 21 90 43 l86 40 117 -79 c139 -93 193 -114
279 -107 107 9 142 34 348 242 221 223 233 242 233 366 0 92 -10 118 -99 266
-20 32 -36 69 -36 82 l0 22 2128 -2 2127 -3 67 -32z m-1382 -3363 c0 -1057 0
-1064 -21 -1107 -25 -52 -90 -110 -139 -124 -23 -7 -572 -9 -1657 -7 l-1621 3
-43 30 c-24 17 -57 50 -74 74 l-30 43 -3 1079 -2 1079 1795 -2 1795 -3 0
-1065z"/>
<path d="M2610 8140 c-381 -43 -699 -335 -785 -720 -21 -96 -22 -280 -1 -377
74 -342 331 -609 673 -700 133 -35 315 -37 448 -4 254 61 482 247 600 488 59
119 85 222 92 358 13 270 -70 486 -262 681 -105 106 -184 160 -312 214 -125
52 -307 76 -453 60z m325 -200 c287 -91 486 -327 525 -622 19 -142 -9 -289
-81 -429 -90 -174 -254 -311 -444 -371 -90 -29 -262 -35 -361 -13 -258 56
-466 241 -550 487 -40 118 -50 236 -30 352 51 307 272 543 569 611 92 21 282
13 372 -15z"/>
<path d="M7308 6070 c-79 -23 -167 -111 -194 -192 -12 -36 -15 -71 -12 -118
19 -257 327 -372 508 -190 124 123 117 322 -15 438 -25 22 -67 48 -92 56 -49
17 -149 20 -195 6z m152 -173 c63 -32 88 -122 50 -184 -70 -115 -240 -62 -240
76 0 37 6 49 39 82 33 34 45 39 82 39 24 0 55 -6 69 -13z"/>
<path d="M8150 6063 c-67 -24 -154 -115 -174 -183 -44 -147 15 -293 145 -365
48 -27 63 -30 139 -30 99 0 159 24 215 87 63 69 80 113 80 208 0 73 -4 92 -27
136 -34 64 -105 128 -165 148 -58 20 -154 19 -213 -1z m201 -192 c33 -33 39
-45 39 -82 0 -78 -57 -139 -130 -139 -95 0 -159 105 -115 190 25 48 62 70 118
70 44 0 53 -4 88 -39z"/>
<path d="M4145 3458 c-32 -38 -29 -81 11 -115 l25 -23 1254 0 c806 0 1263 4
1280 10 34 13 59 69 46 104 -23 60 65 56 -1322 56 l-1267 0 -27 -32z"/>
<path d="M4180 2903 c-27 -10 -49 -35 -55 -63 -7 -33 15 -84 42 -94 31 -12
2540 -8 2563 4 25 14 40 67 27 103 -20 60 50 57 -1314 56 -686 0 -1255 -3
-1263 -6z"/>
<path d="M4154 2296 c-39 -33 -39 -89 0 -122 l27 -24 819 0 819 0 27 24 c21
18 28 32 28 61 0 29 -7 43 -28 61 l-27 24 -819 0 -819 0 -27 -24z"/>
</g>
</svg>
